<?xml version="1.0" standalone="yes"?>

<svg version="1.1" viewBox="0.0 0.0 310.79002624671915 312.48556430446195" fill="none" stroke="none" stroke-linecap="square" stroke-miterlimit="10" xmlns="http://www.w3.org/2000/svg" xmlns:xlink="http://www.w3.org/1999/xlink"><clipPath id="p.0"><path d="m0 0l310.79004 0l0 312.48557l-310.79004 0l0 -312.48557z" clip-rule="nonzero"></path></clipPath><g clip-path="url(#p.0)"><path fill="#000000" fill-opacity="0.0" d="m0 0l310.79004 0l0 312.48557l-310.79004 0z" fill-rule="evenodd"></path><g filter="url(#shadowFilter-p.1)"><use xlink:href="#p.1" transform="matrix(1.0 0.0 0.0 1.0 -0.06979894763215633 1.9987816998339074)"></use></g><defs><filter id="shadowFilter-p.1" filterUnits="userSpaceOnUse"><feGaussianBlur in="SourceAlpha" stdDeviation="2.0" result="blur"></feGaussianBlur><feComponentTransfer in="blur" color-interpolation-filters="sRGB"><feFuncR type="linear" slope="0" intercept="0.0"></feFuncR><feFuncG type="linear" slope="0" intercept="0.0"></feFuncG><feFuncB type="linear" slope="0" intercept="0.0"></feFuncB><feFuncA type="linear" slope="1.0" intercept="0"></feFuncA></feComponentTransfer></filter></defs><g id="p.1"><path fill="#f3f3f3" d="m1.9133859 156.24278l0 0c0 -84.76484 68.71548 -153.48032 153.48032 -153.48032l0 0c40.705505 0 79.74382 16.170202 108.52698 44.953342c28.783142 28.783146 44.95334 67.82146 44.95334 108.52698l0 0c0 84.76483 -68.715485 153.4803 -153.48032 153.4803l0 0c-84.76485 0 -153.48032 -68.71547 -153.48032 -153.4803z" fill-rule="evenodd"></path><path fill="#444444" d="m90.71682 79.205284l-19.203125 -2.875l0 -12.0l44.640625 0l79.92188 117.10937l13.4375 25.4375l0 -127.67187l-20.875 -2.875l0 -12.0l56.640625 0l0 12.0l-19.203125 2.875l0 163.4375l-18.96875 0l-81.59376 -119.76562l-18.484375 -31.671875l0 137.28125l22.796867 2.390625l0 11.765625l-58.312492 0l0 -11.765625l19.203125 -2.640625l0 -149.03125z" fill-rule="nonzero"></path></g><path fill="#000000" fill-opacity="0.0" d="m113.84099 140.14174l80.566925 0l0 26.677155l-80.566925 0z" fill-rule="evenodd"></path></g></svg>

