<?xml version="1.0" standalone="yes"?>

<svg version="1.1" viewBox="0.0 0.0 308.249343832021 310.36745406824144" fill="none" stroke="none" stroke-linecap="square" stroke-miterlimit="10" xmlns="http://www.w3.org/2000/svg" xmlns:xlink="http://www.w3.org/1999/xlink"><clipPath id="p.0"><path d="m0 0l308.24933 0l0 310.36746l-308.24933 0l0 -310.36746z" clip-rule="nonzero"></path></clipPath><g clip-path="url(#p.0)"><path fill="#000000" fill-opacity="0.0" d="m0 0l308.24933 0l0 310.36746l-308.24933 0z" fill-rule="evenodd"></path><g filter="url(#shadowFilter-p.1)"><use xlink:href="#p.1" transform="matrix(1.0 0.0 0.0 1.0 -0.06979894763215633 1.9987816998339074)"></use></g><defs><filter id="shadowFilter-p.1" filterUnits="userSpaceOnUse"><feGaussianBlur in="SourceAlpha" stdDeviation="2.0" result="blur"></feGaussianBlur><feComponentTransfer in="blur" color-interpolation-filters="sRGB"><feFuncR type="linear" slope="0" intercept="0.9372549"></feFuncR><feFuncG type="linear" slope="0" intercept="0.9372549"></feFuncG><feFuncB type="linear" slope="0" intercept="0.9372549"></feFuncB><feFuncA type="linear" slope="0.5" intercept="0"></feFuncA></feComponentTransfer></filter></defs><g id="p.1"><path fill="#f3f3f3" d="m0.64435697 153.48032l0 0c0 -84.76484 68.71548 -153.48032 153.4803 -153.48032l0 0c40.70552 0 79.743835 16.1702 108.52698 44.953342c28.783142 28.783146 44.95334 67.82146 44.95334 108.52698l0 0c0 84.76483 -68.71547 153.48032 -153.48032 153.48032l0 0c-84.76483 0 -153.4803 -68.715485 -153.4803 -153.48032z" fill-rule="evenodd"></path><path fill="#444444" d="m89.44779 76.44282l-19.203125 -2.875l0 -12.000004l44.640625 0l79.92188 117.109375l13.4375 25.4375l0 -127.67187l-20.875 -2.875l0 -12.000004l56.640625 0l0 12.000004l-19.203125 2.875l0 163.4375l-18.96875 0l-81.59376 -119.76562l-18.484375 -31.671875l0 137.28125l22.796867 2.390625l0 11.765625l-58.312492 0l0 -11.765625l19.203125 -2.640625l0 -149.03125z" fill-rule="nonzero"></path></g><path fill="#000000" fill-opacity="0.0" d="m113.84099 140.14174l80.566925 0l0 26.677155l-80.566925 0z" fill-rule="evenodd"></path></g></svg>

