<?xml version="1.0" standalone="yes"?>

<svg version="1.1" viewBox="0.0 0.0 308.249343832021 310.36745406824144" fill="none" stroke="none" stroke-linecap="square" stroke-miterlimit="10" xmlns="http://www.w3.org/2000/svg" xmlns:xlink="http://www.w3.org/1999/xlink"><clipPath id="p.0"><path d="m0 0l308.24933 0l0 310.36746l-308.24933 0l0 -310.36746z" clip-rule="nonzero"></path></clipPath><g clip-path="url(#p.0)"><path fill="#000000" fill-opacity="0.0" d="m0 0l308.24933 0l0 310.36746l-308.24933 0z" fill-rule="evenodd"></path><g filter="url(#shadowFilter-p.1)"><use xlink:href="#p.1" transform="matrix(1.0 0.0 0.0 1.0 -0.06979894763215633 1.9987816998339074)"></use></g><defs><filter id="shadowFilter-p.1" filterUnits="userSpaceOnUse"><feGaussianBlur in="SourceAlpha" stdDeviation="2.0" result="blur"></feGaussianBlur><feComponentTransfer in="blur" color-interpolation-filters="sRGB"><feFuncR type="linear" slope="0" intercept="0.0"></feFuncR><feFuncG type="linear" slope="0" intercept="0.0"></feFuncG><feFuncB type="linear" slope="0" intercept="0.0"></feFuncB><feFuncA type="linear" slope="0.5" intercept="0"></feFuncA></feComponentTransfer></filter></defs><g id="p.1"><path fill="#f3f3f3" d="m0.64435697 153.48032l0 0c0 -84.76484 68.71548 -153.48032 153.4803 -153.48032l0 0c40.70552 0 79.743835 16.1702 108.52698 44.953342c28.783142 28.783146 44.95334 67.82146 44.95334 108.52698l0 0c0 84.76483 -68.71547 153.48032 -153.48032 153.48032l0 0c-84.76483 0 -153.4803 -68.715485 -153.4803 -153.48032z" fill-rule="evenodd"></path><path fill="#444444" d="m82.53425 123.517815l-7.453125 -1.109375l0 -4.671875l17.359375 0l31.078125 45.546867l5.2187424 9.890625l0 -49.656242l-8.124992 -1.109375l0 -4.671875l22.031242 0l0 4.671875l-7.46875 1.109375l0 63.562492l-7.3749924 0l-31.71875 -46.578125l-7.1875 -12.3125l0 53.390625l8.859375 0.921875l0 4.578125l-22.671875 0l0 -4.578125l7.453125 -1.015625l0 -57.968742zm96.60993 0l-7.2812653 -1.109375l0 -4.671875l12.218765 0q2.890625 0 8.3125 -0.375q5.40625 -0.375 8.109375 -0.375q17.359375 0 25.796875 8.734375q8.453125 8.718742 8.453125 24.499992q0 11.0 -4.34375 19.546875q-4.328125 8.546875 -12.171875 13.3125q-7.84375 4.75 -18.015625 4.75q-2.234375 0 -7.640625 -0.375q-5.609375 -0.375 -8.40625 -0.375l-12.781265 0l0 -4.578125l7.7500153 -0.921875l0 -58.062492zm9.890625 58.343742q3.265625 0.734375 8.390625 0.734375l2.796875 0q7.0 -0.09375 12.359375 -3.546875q5.375 -3.453125 8.359375 -10.3125q3.0 -6.859375 3.0 -16.65625q0 -14.75 -6.40625 -22.390625q-6.390625 -7.6562424 -19.265625 -7.6562424q-2.703125 0 -6.4375 0.375q-1.59375 0.28125 -2.796875 0.28125l0 59.171867z" fill-rule="nonzero"></path></g></g></svg>

