<?xml version="1.0" standalone="no"?>
<!DOCTYPE svg PUBLIC "-//W3C//DTD SVG 20010904//EN"
 "http://www.w3.org/TR/2001/REC-SVG-20010904/DTD/svg10.dtd">
<svg version="1.0" xmlns="http://www.w3.org/2000/svg"
 width="1008.000000pt" height="1008.000000pt" viewBox="0 0 1008.000000 1008.000000"
 preserveAspectRatio="xMidYMid meet">
<metadata>
Created by potrace 1.11, written by Peter Selinger 2001-2013
</metadata>
<g transform="translate(0.000000,1008.000000) scale(0.100000,-0.100000)"
fill="#000000" stroke="none">
<path d="M2872 9347 l-712 -712 3 -3055 c1 -1680 6 -3066 10 -3080 4 -14 10
-41 12 -60 3 -19 7 -46 10 -60 3 -14 8 -41 11 -60 2 -19 9 -53 15 -75 6 -22
13 -47 14 -55 4 -19 72 -235 86 -275 33 -90 68 -172 110 -257 21 -42 36 -78
33 -81 -2 -2 2 -10 11 -17 8 -7 15 -17 15 -22 0 -9 90 -162 130 -222 8 -12 25
-38 37 -57 12 -19 26 -38 30 -44 5 -5 22 -28 38 -50 94 -127 329 -379 415
-445 18 -13 42 -33 55 -45 13 -11 36 -30 51 -42 16 -12 43 -33 59 -48 17 -14
46 -35 65 -47 19 -12 37 -24 40 -28 12 -13 121 -80 130 -80 5 0 10 -5 10 -12
0 -6 3 -8 7 -5 3 4 13 1 22 -7 26 -23 267 -141 381 -186 171 -68 273 -100 465
-147 11 -2 31 -6 45 -8 14 -2 36 -6 50 -9 14 -3 43 -8 65 -11 22 -3 56 -7 75
-10 183 -25 631 -25 764 1 11 2 36 6 56 9 47 7 78 13 98 19 9 3 31 8 49 11 80
13 340 88 418 120 115 46 115 47 288 129 87 41 172 85 190 98 17 13 48 31 67
42 19 10 37 22 40 25 3 4 28 23 55 41 28 19 52 37 53 42 2 4 10 8 17 8 7 0 15
3 17 8 2 4 34 31 71 60 140 109 365 331 459 452 14 19 44 58 65 85 256 328
485 886 529 1283 3 29 8 63 12 75 4 12 8 740 9 1617 l3 1595 -716 -2 c-394 -1
-718 -4 -720 -6 -5 -4 -8 -223 -4 -242 1 -5 2 -36 1 -68 l-1 -57 -37 23 c-35
21 -239 122 -308 153 -30 13 -175 65 -185 66 -5 1 -20 5 -47 14 -10 3 -20 6
-23 6 -3 0 -25 7 -50 14 -25 7 -56 15 -70 18 -14 2 -72 16 -130 29 -58 14
-125 28 -150 32 -25 4 -53 9 -62 10 -135 26 -607 25 -793 0 -114 -15 -137 -19
-175 -28 -14 -4 -38 -9 -55 -11 -34 -6 -182 -45 -263 -71 -145 -45 -431 -167
-440 -187 -2 -5 -12 -8 -22 -8 -9 0 -23 -6 -29 -14 -6 -8 -21 -16 -31 -19 -19
-5 -20 0 -21 91 0 54 0 1102 0 2330 -1 1227 -2 2232 -2 2232 -1 0 -323 -321
-715 -713z m2258 -5021 c83 -5 129 -10 180 -22 14 -3 38 -8 54 -11 16 -3 69
-18 118 -34 302 -98 566 -299 747 -567 79 -117 175 -330 197 -437 2 -11 7 -31
10 -45 3 -14 7 -38 10 -55 3 -16 7 -36 9 -43 17 -48 24 -356 11 -452 -11 -86
-70 -285 -103 -349 -6 -14 -10 -28 -7 -33 3 -4 1 -8 -4 -8 -4 0 -18 -21 -30
-48 -21 -46 -92 -158 -142 -223 -44 -57 -193 -203 -250 -244 -30 -22 -68 -50
-85 -62 -29 -21 -175 -107 -185 -109 -3 0 -26 -10 -51 -21 -48 -22 -185 -69
-229 -79 -150 -34 -404 -51 -505 -33 -22 4 -64 10 -93 13 -160 18 -361 98
-552 220 -24 16 -51 35 -58 43 -7 7 -17 13 -22 13 -12 0 -250 237 -250 249 0
5 -6 16 -13 23 -17 17 -97 135 -97 143 0 3 -10 22 -23 43 -40 64 -127 281
-142 357 -16 74 -26 133 -30 175 -6 58 -6 299 -1 327 3 11 8 43 12 70 9 56 7
46 23 103 52 191 120 335 234 499 80 113 247 278 323 319 13 7 24 17 24 22 0
6 7 10 15 10 8 0 15 5 15 10 0 6 4 10 9 10 5 0 38 17 72 39 95 57 270 128 360
146 13 3 33 7 44 10 73 17 120 25 195 31 47 3 86 7 88 9 2 2 11 1 20 -1 9 -2
55 -5 102 -8z"/>
</g>
</svg>
