<?xml version="1.0" encoding="utf-8"?>
<!-- Generator: Adobe Illustrator 22.0.1, SVG Export Plug-In . SVG Version: 6.00 Build 0)  -->
<svg version="1.1" id="Ebene_1" xmlns="http://www.w3.org/2000/svg" xmlns:xlink="http://www.w3.org/1999/xlink" x="0px" y="0px"
	 viewBox="0 0 144 255" style="enable-background:new 0 0 144 255;" xml:space="preserve">
<style type="text/css">
	.st0{fill:url(#SVGID_1_);}
	.st1{fill:url(#SVGID_2_);}
</style>
<linearGradient id="SVGID_1_" gradientUnits="userSpaceOnUse" x1="113.06" y1="123.26" x2="114.16" y2="123.26">
	<stop  offset="0" style="stop-color:#4183D7"/>
	<stop  offset="0.1423" style="stop-color:#447CD7"/>
	<stop  offset="0.3451" style="stop-color:#4D6AD9"/>
	<stop  offset="0.5832" style="stop-color:#5C4BDB"/>
	<stop  offset="0.5902" style="stop-color:#5C4ADB"/>
	<stop  offset="0.8604" style="stop-color:#6F5FE1"/>
	<stop  offset="1" style="stop-color:#7B6CE5"/>
</linearGradient>
<path class="st0" d="M113.5,123.2c-0.2-0.1-0.3-0.2-0.5-0.3c0.4,0.3,0.7,0.5,1.1,0.8C114,123.5,113.7,123.3,113.5,123.2z
	 M113.1,122.9c0.4,0.3,0.7,0.5,1.1,0.8c-0.2-0.2-0.4-0.3-0.6-0.5C113.4,123.1,113.2,123,113.1,122.9z"/>
<linearGradient id="SVGID_2_" gradientUnits="userSpaceOnUse" x1="-31.9663" y1="83.711" x2="150.7289" y2="189.1901">
	<stop  offset="0" style="stop-color:#4183D7"/>
	<stop  offset="0.1423" style="stop-color:#447CD7"/>
	<stop  offset="0.3451" style="stop-color:#4D6AD9"/>
	<stop  offset="0.5832" style="stop-color:#5C4BDB"/>
	<stop  offset="0.5902" style="stop-color:#5C4ADB"/>
	<stop  offset="0.8604" style="stop-color:#6F5FE1"/>
	<stop  offset="1" style="stop-color:#7B6CE5"/>
</linearGradient>
<path class="st1" d="M108,110v9.1c-0.3-0.2-0.7-0.4-1-0.6c-0.3-0.2-0.6-0.3-0.9-0.5c-0.9-0.5-1.9-1-2.8-1.5c0,0-0.1,0-0.1-0.1
	c-0.9-0.4-1.8-0.8-2.7-1.2c-0.3-0.1-0.7-0.3-1-0.4c-0.3-0.1-0.6-0.3-0.9-0.4c-0.1,0-0.2-0.1-0.4-0.1c-0.3-0.1-0.5-0.2-0.8-0.3
	c-0.5-0.2-0.9-0.4-1.4-0.5c-0.2-0.1-0.4-0.2-0.7-0.2c-0.4-0.1-0.7-0.3-1.1-0.4c-0.2,0-0.3-0.1-0.5-0.2c-0.1,0-0.1,0-0.2,0
	c-0.2-0.1-0.4-0.1-0.6-0.2c0,0-0.1,0-0.2,0c-0.8-0.3-1.7-0.5-2.5-0.7c-0.3-0.1-0.5-0.1-0.8-0.2c-0.3-0.1-0.6-0.2-0.9-0.2
	c-0.4-0.1-0.8-0.2-1.1-0.3c-0.2,0-0.4-0.1-0.6-0.1c-0.3-0.1-0.6-0.1-0.9-0.2c-0.3,0-0.5-0.1-0.8-0.2c-0.3-0.1-0.6-0.1-0.9-0.2
	c-0.3,0-0.5-0.1-0.8-0.1l-1-0.1c-1.1-0.2-2.2-0.3-3.3-0.4c-0.6,0-1.2-0.1-1.8-0.1c-0.5,0-1.1-0.1-1.6-0.1h-0.1c-0.1,0-0.3,0-0.4,0
	c-0.1,0-0.3,0-0.4,0c-0.3,0-0.6,0-0.8,0c-0.3,0-0.5,0-0.8,0c-0.5,0-1,0-1.5,0c-0.6,0-1.1,0-1.7,0c-0.1,0-0.3,0-0.4,0
	c-0.3,0-0.5,0-0.8,0c-0.2,0-0.3,0-0.5,0c-0.4,0-0.8,0-1.2,0.1c-0.7,0-1.3,0.1-2,0.2c-0.1,0-0.3,0-0.4,0c0,0-0.1,0-0.1,0
	c-0.3,0-0.5,0.1-0.8,0.1c-0.1,0-0.2,0-0.3,0c-0.4,0-0.8,0.1-1.1,0.1c-0.1,0-0.2,0-0.3,0c-0.2,0-0.5,0.1-0.7,0.1
	c-0.3,0-0.6,0.1-0.8,0.1c-0.2,0-0.4,0.1-0.7,0.1c-0.2,0-0.4,0.1-0.7,0.1c0,0,0,0,0,0c-0.4,0.1-0.8,0.1-1.2,0.2c-0.1,0-0.2,0-0.3,0.1
	c-0.4,0.1-0.7,0.1-1.1,0.2c-0.1,0-0.3,0-0.4,0.1c-0.2,0-0.3,0.1-0.5,0.1c-0.4,0.1-0.8,0.2-1.3,0.3c0,0,0,0,0,0c0,0-0.1,0-0.1,0
	c-1,0.2-1.9,0.5-2.8,0.8c-0.1,0-0.3,0.1-0.4,0.1c0,0-0.1,0-0.1,0c-0.6,0.2-1.3,0.4-1.9,0.6c0,0-0.1,0-0.1,0c0,0-0.1,0-0.1,0
	c-4,1.3-7.9,3-11.6,5h0c-0.5,0.3-1,0.6-1.6,0.9V2C16.1,2,0,18.1,0,38v143.5c0,0.7,0,1.3,0,2c0,0.7,0,1.3,0.1,2c0,0.4,0,0.7,0.1,1.1
	c0,0.6,0.1,1.3,0.2,1.9c0.1,1.4,0.3,2.8,0.5,4.1c0.1,0.7,0.2,1.4,0.4,2.1c0.1,0.7,0.3,1.4,0.4,2.1c0.1,0.5,0.2,1,0.4,1.6
	c0.2,0.8,0.4,1.7,0.7,2.5c0.1,0.2,0.1,0.5,0.2,0.7c0.6,1.9,1.2,3.8,1.9,5.7c0.1,0.3,0.3,0.7,0.4,1c1,2.4,2.1,4.8,3.3,7
	c0.2,0.5,0.5,0.9,0.7,1.3c0.2,0.4,0.4,0.7,0.6,1c0.4,0.7,0.8,1.4,1.3,2.1c0.3,0.5,0.6,0.9,0.9,1.4c0.3,0.5,0.6,0.9,0.9,1.3
	c0,0.1,0.1,0.1,0.1,0.2c0.5,0.7,1,1.4,1.5,2c0.5,0.7,1,1.4,1.6,2c0.3,0.3,0.5,0.6,0.8,1c0.3,0.3,0.5,0.6,0.8,1
	c0.3,0.3,0.5,0.6,0.8,0.9c2.3,2.6,4.8,5,7.5,7.2c0.3,0.2,0.6,0.5,0.9,0.7c0.5,0.4,0.9,0.8,1.4,1.1c0.1,0.1,0.2,0.1,0.2,0.2
	c0.4,0.3,0.9,0.7,1.3,1c0.1,0,0.1,0.1,0.2,0.1c0.3,0.2,0.5,0.4,0.8,0.6c0.5,0.4,1.1,0.8,1.6,1.1c0.6,0.4,1.3,0.8,1.9,1.2
	c0.4,0.3,0.8,0.5,1.2,0.7c0.3,0.2,0.6,0.3,0.9,0.5c2.7,1.6,5.5,2.9,8.5,4.1c0.6,0.2,1.2,0.5,1.8,0.7c0.1,0,0.1,0,0.2,0.1
	c0.7,0.3,1.3,0.5,2,0.7c0.6,0.2,1.2,0.4,1.8,0.6c0.7,0.2,1.4,0.4,2,0.6c0.9,0.2,1.7,0.5,2.6,0.7c0.5,0.1,0.9,0.2,1.4,0.3
	c0.1,0,0.2,0,0.3,0.1c0.4,0.1,0.7,0.2,1.1,0.2c1,0.2,2,0.4,3,0.5c0.5,0.1,0.9,0.1,1.4,0.2c0.4,0,0.7,0.1,1.1,0.1
	c0.7,0.1,1.4,0.2,2.1,0.2c0.1,0,0.1,0,0.2,0c0.7,0.1,1.4,0.1,2.2,0.2c0.7,0,1.3,0.1,2,0.1c0.7,0,1.3,0,2,0s1.3,0,2,0
	c0.7,0,1.3-0.1,2-0.1c0.6,0,1.2-0.1,1.8-0.1c0.7,0,1.4-0.1,2.1-0.2c0.6-0.1,1.3-0.1,1.9-0.2c0.2,0,0.3,0,0.4-0.1
	c0.5,0,0.9-0.1,1.3-0.2c0.2,0,0.3,0,0.5-0.1c0.8-0.1,1.6-0.3,2.4-0.5c0.8-0.1,1.5-0.3,2.3-0.5c0.1,0,0.3-0.1,0.4-0.1
	c0.5-0.1,1.1-0.3,1.6-0.4c0.7-0.2,1.4-0.4,2.1-0.6c0.4-0.1,0.7-0.2,1.1-0.3c0.7-0.2,1.4-0.5,2.1-0.7c0.3-0.1,0.7-0.2,1-0.4
	c0.7-0.2,1.3-0.5,2-0.8c0.8-0.3,1.5-0.6,2.2-0.9c0.3-0.1,0.5-0.2,0.8-0.4c0.3-0.1,0.5-0.3,0.8-0.4c0.3-0.1,0.6-0.3,0.9-0.4
	c0.3-0.1,0.5-0.2,0.8-0.4c0.2-0.1,0.4-0.2,0.7-0.3c0.1,0,0.1-0.1,0.2-0.1c0.3-0.1,0.5-0.3,0.8-0.4c0.1-0.1,0.3-0.1,0.4-0.2
	c0.6-0.3,1.2-0.7,1.8-1c0.6-0.4,1.2-0.7,1.8-1.1c0.6-0.4,1.2-0.7,1.7-1.1c0.6-0.4,1.1-0.8,1.7-1.2c0.5-0.4,1.1-0.8,1.6-1.2
	c0,0,0,0,0.1,0c0.5-0.4,1.1-0.8,1.6-1.3c0.3-0.2,0.5-0.4,0.8-0.6c0.3-0.2,0.5-0.4,0.8-0.7c1-0.9,2.1-1.8,3.1-2.7
	c0.5-0.5,1-1,1.5-1.4c0.2-0.2,0.5-0.5,0.7-0.7c0.2-0.2,0.5-0.5,0.7-0.7c0.6-0.6,1.2-1.3,1.8-1.9c0.3-0.4,0.7-0.8,1-1.2
	c0.2-0.2,0.4-0.4,0.6-0.7c0.9-1,1.7-2.1,2.5-3.2c0.3-0.3,0.5-0.7,0.8-1c0.5-0.7,0.9-1.4,1.4-2.1c0.3-0.5,0.6-0.9,0.9-1.4
	c0.2-0.3,0.4-0.6,0.5-0.9c0.2-0.3,0.4-0.6,0.5-0.9c0.3-0.6,0.7-1.2,1-1.8c0.2-0.4,0.5-0.9,0.7-1.3c0.2-0.4,0.4-0.8,0.6-1.3
	c0.8-1.7,1.6-3.3,2.3-5.1c0.2-0.5,0.4-0.9,0.5-1.4c0.2-0.5,0.4-1,0.6-1.5c0.2-0.7,0.5-1.3,0.7-2c0.1-0.2,0.1-0.3,0.2-0.5
	c0.2-0.6,0.4-1.3,0.6-1.9c0-0.2,0.1-0.3,0.1-0.5c0.2-0.6,0.3-1.3,0.5-2c0.2-0.8,0.4-1.6,0.5-2.4c0.4-1.9,0.7-3.7,0.9-5.6
	c0.1-0.4,0.1-0.9,0.2-1.3c0-0.3,0.1-0.5,0.1-0.8c0-0.5,0.1-0.9,0.1-1.4c0-0.4,0.1-0.8,0.1-1.2c0-0.6,0.1-1.2,0.1-1.8
	c0,0.8,0,1.7,0,2.5V110H108z M108,182.9c0,1-0.1,1.9-0.2,2.8c-0.1,0.8-0.2,1.6-0.3,2.4c-0.1,0.4-0.1,0.7-0.2,1.1
	c-0.1,0.4-0.2,0.7-0.3,1.1c-0.1,0.3-0.2,0.6-0.3,0.9c-0.2,0.6-0.3,1.2-0.5,1.8c-0.1,0.2-0.1,0.4-0.2,0.6c-0.1,0.2-0.1,0.4-0.2,0.6
	c-0.7,1.8-1.5,3.6-2.5,5.3c-0.2,0.3-0.4,0.7-0.6,1c-0.3,0.4-0.5,0.8-0.8,1.2c-0.2,0.4-0.5,0.7-0.8,1.1c-0.3,0.3-0.5,0.7-0.8,1
	c-0.3,0.3-0.5,0.7-0.8,1c-0.8,1-1.7,1.9-2.7,2.8c-0.3,0.3-0.6,0.6-1,0.9c-0.3,0.3-0.6,0.6-1,0.8c-1,0.8-2.1,1.6-3.1,2.3
	c-0.4,0.2-0.7,0.5-1.1,0.7c-0.4,0.2-0.8,0.5-1.1,0.7c-0.2,0.1-0.4,0.2-0.6,0.3c-1,0.5-1.9,1-3,1.4c-1.5,0.6-3,1.2-4.6,1.6
	c-0.3,0.1-0.6,0.2-0.9,0.2c-0.4,0.1-0.8,0.2-1.1,0.3c0,0-0.1,0-0.1,0c-0.3,0.1-0.7,0.1-1.1,0.2c-0.4,0.1-0.8,0.1-1.2,0.2
	c-0.3,0-0.7,0.1-1,0.1c-0.7,0.1-1.3,0.1-2,0.2c-0.1,0-0.1,0-0.2,0c-0.6,0-1.2,0-1.8,0s-1.2,0-1.8,0c-0.1,0-0.1,0-0.2,0
	c-0.7,0-1.3-0.1-2-0.2c-0.3,0-0.7-0.1-1-0.1c-0.7-0.1-1.4-0.2-2.1-0.4c-0.4-0.1-0.7-0.1-1.1-0.2c-0.2,0-0.3-0.1-0.5-0.1
	c-0.2,0-0.3-0.1-0.5-0.1c-0.7-0.2-1.3-0.4-2-0.6c-0.3-0.1-0.6-0.2-0.9-0.3c-0.3-0.1-0.6-0.2-0.9-0.3c-0.2,0-0.3-0.1-0.5-0.2
	c-0.2-0.1-0.4-0.2-0.6-0.3c-0.2-0.1-0.4-0.2-0.6-0.3c-0.2-0.1-0.3-0.1-0.5-0.2c-0.5-0.2-0.9-0.4-1.4-0.7c-0.3-0.1-0.6-0.3-0.9-0.5
	c-0.3-0.2-0.6-0.3-0.9-0.5c-0.3-0.2-0.5-0.3-0.8-0.5c-0.6-0.4-1.2-0.8-1.7-1.2c-0.3-0.2-0.5-0.4-0.8-0.6c-0.3-0.2-0.6-0.4-0.9-0.7
	c-0.3-0.2-0.6-0.5-0.9-0.8c-0.1-0.1-0.2-0.1-0.3-0.2c-0.3-0.2-0.5-0.4-0.7-0.7c-0.3-0.3-0.6-0.6-1-0.9c-0.3-0.3-0.5-0.5-0.8-0.8
	c-0.3-0.3-0.6-0.6-0.8-0.9c-0.8-0.9-1.5-1.8-2.2-2.8c-0.3-0.4-0.6-0.9-0.9-1.3c-0.2-0.3-0.4-0.6-0.6-0.9c-0.2-0.3-0.3-0.6-0.5-0.9
	c-0.4-0.7-0.8-1.4-1.1-2.1c-0.2-0.4-0.4-0.8-0.5-1.2c-0.2-0.5-0.5-1.1-0.7-1.6c-0.1-0.3-0.3-0.6-0.4-1c-0.1-0.3-0.2-0.5-0.3-0.8
	c-0.1-0.3-0.2-0.6-0.3-0.8c0,0,0-0.1,0-0.1c-0.1-0.2-0.1-0.4-0.2-0.6c-0.1-0.3-0.2-0.6-0.3-0.9c-0.3-1.1-0.5-2.2-0.7-3.3
	c0-0.2-0.1-0.4-0.1-0.7c0-0.3-0.1-0.7-0.1-1.1c0-0.4-0.1-0.7-0.1-1.1c0-0.3,0-0.7-0.1-1c0-0.2,0-0.3,0-0.5c0-0.5,0-0.9,0-1.4
	c0-0.5,0-1,0-1.5c0-0.1,0-0.2,0-0.3v-0.1c0-0.5,0.1-1,0.1-1.5c0-0.1,0-0.1,0-0.2c0-0.1,0-0.1,0-0.2c0-0.5,0.1-0.9,0.2-1.4
	c0-0.1,0-0.3,0.1-0.4c0.1-0.4,0.1-0.9,0.2-1.3c0-0.3,0.1-0.5,0.2-0.8c0.1-0.4,0.2-0.8,0.3-1.2c0,0,0-0.1,0-0.1
	c0.1-0.5,0.3-0.9,0.4-1.3c0.1-0.2,0.1-0.4,0.2-0.7c0.1-0.4,0.2-0.7,0.4-1.1c0.1-0.2,0.1-0.4,0.2-0.5c0.2-0.4,0.3-0.8,0.5-1.3
	c0-0.1,0.1-0.1,0.1-0.2c0.2-0.4,0.4-0.8,0.6-1.3c0.1-0.1,0.1-0.3,0.2-0.4c0.2-0.4,0.4-0.8,0.7-1.3c0-0.1,0.1-0.1,0.1-0.2
	c0.5-0.9,1.1-1.9,1.7-2.8c0.2-0.3,0.4-0.5,0.6-0.8c0.1-0.2,0.3-0.4,0.4-0.6c0.2-0.2,0.4-0.5,0.5-0.7c0.2-0.2,0.3-0.4,0.5-0.6
	c0.2-0.2,0.3-0.4,0.5-0.6c0.2-0.2,0.4-0.5,0.6-0.7c0.1-0.1,0.2-0.2,0.3-0.4c0.3-0.3,0.6-0.7,0.9-1c0.1-0.1,0.1-0.1,0.2-0.2
	c0.2-0.2,0.4-0.4,0.7-0.6c0.2-0.2,0.4-0.4,0.6-0.5c1.7-1.5,3.4-2.8,5.3-4c0.1,0,0.2-0.1,0.2-0.1c0.4-0.2,0.8-0.5,1.2-0.7
	c0.1-0.1,0.3-0.1,0.4-0.2c0.2-0.1,0.5-0.2,0.7-0.4c0.3-0.1,0.5-0.3,0.8-0.4c0.3-0.1,0.5-0.2,0.8-0.4c0.2-0.1,0.5-0.2,0.7-0.3
	c0.9-0.4,1.8-0.7,2.7-1c0.5-0.2,1.1-0.3,1.6-0.5c0.2,0,0.3-0.1,0.5-0.1c0.1,0,0.2-0.1,0.4-0.1c0.1,0,0.3-0.1,0.4-0.1
	c0.4-0.1,0.8-0.2,1.2-0.3c0.1,0,0.2,0,0.3-0.1c0.4-0.1,0.9-0.2,1.3-0.2c0.1,0,0.3,0,0.4-0.1c0.3,0,0.7-0.1,1-0.1
	c0.2,0,0.5-0.1,0.7-0.1c0.4,0,0.8-0.1,1.2-0.1c0.8,0,1.5-0.1,2.3-0.1c19.9,0,36,16.1,36,36C108,182,108,182.5,108,182.9z"/>
</svg>
