<?xml version="1.0" encoding="utf-8"?>
<!-- Generator: Adobe Illustrator 22.0.1, SVG Export Plug-In . SVG Version: 6.00 Build 0)  -->
<svg version="1.1" id="Ebene_1" xmlns="http://www.w3.org/2000/svg" xmlns:xlink="http://www.w3.org/1999/xlink" x="0px" y="0px"
	 viewBox="0 0 380.9 90.6" style="enable-background:new 0 0 380.9 90.6;" xml:space="preserve">
<style type="text/css">
	.st0{fill:#FFFFFF;}
	.st1{fill:url(#SVGID_1_);}
	.st2{fill:url(#SVGID_2_);}
	.st3{fill:url(#SVGID_3_);}
	.st4{fill:url(#SVGID_4_);}
	.st5{fill:url(#SVGID_5_);}
	.st6{fill:url(#SVGID_6_);}
	.st7{fill:url(#SVGID_7_);}
	.st8{fill:url(#SVGID_8_);}
</style>
<g>
	<g>
		<rect y="0.4" class="st0" width="245.8" height="90.6"/>
		<g>
			<linearGradient id="SVGID_1_" gradientUnits="userSpaceOnUse" x1="29.9962" y1="23.3404" x2="29.9962" y2="64.9781">
				<stop  offset="0" style="stop-color:#4183D7"/>
				<stop  offset="0.2412" style="stop-color:#447CD7"/>
				<stop  offset="0.5847" style="stop-color:#4D6AD9"/>
				<stop  offset="0.9881" style="stop-color:#5C4BDB"/>
				<stop  offset="1" style="stop-color:#5C4ADB"/>
			</linearGradient>
			<path class="st1" d="M47,52.1V65H13.4v-1c2.5,0,4.2-2.6,4.2-6.6V29.6c0-3.6-2.1-5.3-4.7-5.3v-1h18.7v1c-2.5,0-5.5,1-5.5,5.3V64
				h2.1c0,0,15.7,0,17.7-11.8H47z"/>
			<linearGradient id="SVGID_2_" gradientUnits="userSpaceOnUse" x1="66.047" y1="37.1213" x2="66.047" y2="65.51">
				<stop  offset="0" style="stop-color:#4183D7"/>
				<stop  offset="0.2412" style="stop-color:#447CD7"/>
				<stop  offset="0.5847" style="stop-color:#4D6AD9"/>
				<stop  offset="0.9881" style="stop-color:#5C4BDB"/>
				<stop  offset="1" style="stop-color:#5C4ADB"/>
			</linearGradient>
			<path class="st2" d="M79.3,50.8H60.5c0.5,5.8,3.4,8.8,7.4,9.7c3.2,0.7,7.9-0.5,9.4-3.3l1,0.5c-0.9,3.1-4.4,7.7-12.4,7.7
				c-7.7,0-13.1-7.2-13.1-14.1c0-8.3,5.7-14.3,13.8-14.3C75.2,37.1,79.3,41.6,79.3,50.8z M72.1,49.8c0-7.5-2.4-11.7-5.7-11.7
				c-3.5,0-5.9,6-5.9,11.7H72.1z"/>
			<linearGradient id="SVGID_3_" gradientUnits="userSpaceOnUse" x1="98.1926" y1="37.1213" x2="98.1926" y2="65.51">
				<stop  offset="0" style="stop-color:#4183D7"/>
				<stop  offset="0.2412" style="stop-color:#447CD7"/>
				<stop  offset="0.5847" style="stop-color:#4D6AD9"/>
				<stop  offset="0.9881" style="stop-color:#5C4BDB"/>
				<stop  offset="1" style="stop-color:#5C4ADB"/>
			</linearGradient>
			<path class="st3" d="M112.3,51.3c0,7.7-5,14.2-14.1,14.2c-9,0-14.1-6.4-14.1-14.2c0-7.8,5.1-14.2,14.1-14.2
				C107.2,37.1,112.3,43.5,112.3,51.3z M103.5,51.3c0-10.7-1.1-13.2-5.3-13.2c-4.3,0-5.4,2.5-5.4,13.2s1.1,13.2,5.4,13.2
				C102.5,64.5,103.5,62,103.5,51.3z"/>
			<linearGradient id="SVGID_4_" gradientUnits="userSpaceOnUse" x1="131.522" y1="37.1213" x2="131.522" y2="80.651">
				<stop  offset="0" style="stop-color:#4183D7"/>
				<stop  offset="0.2412" style="stop-color:#447CD7"/>
				<stop  offset="0.5847" style="stop-color:#4D6AD9"/>
				<stop  offset="0.9881" style="stop-color:#5C4BDB"/>
				<stop  offset="1" style="stop-color:#5C4ADB"/>
			</linearGradient>
			<path class="st4" d="M147.5,51.6c0,9.5-6.3,14-14.5,14c-2.7,0-5.2-0.7-7-1.8v10.2c0,3.3,0.4,5.2,2.4,5.7v1h-12.1v-1
				c2.2-0.7,2.4-2.7,2.4-5.7V43.8c0-2-0.6-2.4-3-3.3v-1l10.3-2.4v4.8c1.9-3.5,6.2-4.8,9-4.8C141.5,37.1,147.5,42.3,147.5,51.6z
				 M139,52.1c0-9.5-2.2-12.8-7-12.8c-3.5,0-5.7,2.8-6.1,6.4v10.8c0.5,6,3.9,8,6.9,8C137.1,64.5,139,61.1,139,52.1z"/>
			<linearGradient id="SVGID_5_" gradientUnits="userSpaceOnUse" x1="166.7447" y1="37.1213" x2="166.7447" y2="65.51">
				<stop  offset="0" style="stop-color:#4183D7"/>
				<stop  offset="0.2412" style="stop-color:#447CD7"/>
				<stop  offset="0.5847" style="stop-color:#4D6AD9"/>
				<stop  offset="0.9881" style="stop-color:#5C4BDB"/>
				<stop  offset="1" style="stop-color:#5C4ADB"/>
			</linearGradient>
			<path class="st5" d="M180.8,51.3c0,7.7-5,14.2-14.1,14.2c-9,0-14.1-6.4-14.1-14.2c0-7.8,5.1-14.2,14.1-14.2
				C175.8,37.1,180.8,43.5,180.8,51.3z M172.1,51.3c0-10.7-1.1-13.2-5.3-13.2c-4.3,0-5.4,2.5-5.4,13.2s1.1,13.2,5.4,13.2
				C171,64.5,172.1,62,172.1,51.3z"/>
			<linearGradient id="SVGID_6_" gradientUnits="userSpaceOnUse" x1="190.8477" y1="20.856" x2="190.8477" y2="64.9781">
				<stop  offset="0" style="stop-color:#4183D7"/>
				<stop  offset="0.2412" style="stop-color:#447CD7"/>
				<stop  offset="0.5847" style="stop-color:#4D6AD9"/>
				<stop  offset="0.9881" style="stop-color:#5C4BDB"/>
				<stop  offset="1" style="stop-color:#5C4ADB"/>
			</linearGradient>
			<path class="st6" d="M197.2,64v1h-12.1v-1c2.2-0.7,2.4-3.1,2.4-6.2V27.9c0-2.1-0.6-3-3-3.8v-1l10.4-2.2v37
				C194.8,61.1,195.1,63.4,197.2,64z"/>
			<linearGradient id="SVGID_7_" gradientUnits="userSpaceOnUse" x1="216.7529" y1="20.856" x2="216.7529" y2="65.51">
				<stop  offset="0" style="stop-color:#4183D7"/>
				<stop  offset="0.2412" style="stop-color:#447CD7"/>
				<stop  offset="0.5847" style="stop-color:#4D6AD9"/>
				<stop  offset="0.9881" style="stop-color:#5C4BDB"/>
				<stop  offset="1" style="stop-color:#5C4ADB"/>
			</linearGradient>
			<path class="st7" d="M232.8,63.1v1l-8.7,1.3c-1.7,0.2-1.7-1.1-1.7-1.1v-3.7c-1.9,3.5-6.3,4.8-9,4.8c-6.7,0-12.6-5.3-12.6-14.6
				c0-9.5,6.3-13.8,14.5-13.8c2.7,0,5.2,0.7,7.1,1.8V27.6c0-2.1-0.6-2.7-3-3.5v-1l10.3-2.2v38.4C229.7,62.1,230.3,62.8,232.8,63.1z
				 M222.4,48c0-7.5-3.7-9.9-7-9.9c-4.3,0-6.2,3.3-6.2,12.2c0,9.5,2,13.1,6.7,13.1c4,0,6.5-3,6.5-7.1V48z"/>
		</g>
	</g>
	<g>
		<linearGradient id="SVGID_8_" gradientUnits="userSpaceOnUse" x1="313.3531" y1="90.9743" x2="313.3531" y2="0.3664">
			<stop  offset="0" style="stop-color:#4183D7"/>
			<stop  offset="0.2412" style="stop-color:#447CD7"/>
			<stop  offset="0.5847" style="stop-color:#4D6AD9"/>
			<stop  offset="0.9881" style="stop-color:#5C4BDB"/>
			<stop  offset="1" style="stop-color:#5C4ADB"/>
		</linearGradient>
		<rect x="245.8" y="0.4" class="st8" width="135.1" height="90.6"/>
		<g>
			<path class="st0" d="M258.8,26.4H272c8,0,14.2,2.2,14.2,9.6c0,3.5-1.9,7.1-5.1,8.3v0.2c3.9,1,7,3.9,7,9.1c0,7.8-6.6,11.4-15,11.4
				h-14.3V26.4z M271.6,41.8c4.2,0,6.1-1.8,6.1-4.6c0-3-2-4.1-6-4.1h-4.1v8.7H271.6z M272.4,58.2c4.8,0,7.2-1.7,7.2-5.2
				c0-3.4-2.4-4.8-7.2-4.8h-4.9v10H272.4z"/>
			<path class="st0" d="M293.9,55.8V23.5h8.7v32.7c0,1.9,0.9,2.5,1.6,2.5c0.3,0,0.6,0,1.1-0.1l1,6.4c-1,0.4-2.4,0.7-4.4,0.7
				C295.9,65.7,293.9,61.8,293.9,55.8z"/>
			<path class="st0" d="M309.4,56.8c0-6.2,4.9-9.5,16.5-10.8c-0.2-2.6-1.5-4.2-4.6-4.2c-2.5,0-4.9,1-7.8,2.7l-3.1-5.7
				c3.7-2.3,7.9-3.9,12.5-3.9c7.5,0,11.7,4.3,11.7,13.3V65h-7.1l-0.6-3h-0.2c-2.5,2.2-5.2,3.7-8.5,3.7
				C312.8,65.7,309.4,61.8,309.4,56.8z M326,56.4v-5.1c-6.2,0.8-8.2,2.6-8.2,4.8c0,1.9,1.3,2.8,3.4,2.8
				C323.1,58.9,324.4,58,326,56.4z"/>
			<path class="st0" d="M341.7,53.8V35.6h8.7v17.1c0,4.2,1.1,5.5,3.6,5.5c2.2,0,3.5-0.9,5.2-3.2V35.6h8.7V65h-7.1l-0.6-4.1H360
				c-2.4,2.9-5.2,4.8-9.2,4.8C344.4,65.7,341.7,61.2,341.7,53.8z"/>
		</g>
	</g>
</g>
</svg>
