<?xml version="1.0" encoding="utf-8"?>
<!-- Generator: Adobe Illustrator 22.0.1, SVG Export Plug-In . SVG Version: 6.00 Build 0)  -->
<svg version="1.1" id="Ebene_1" xmlns="http://www.w3.org/2000/svg" xmlns:xlink="http://www.w3.org/1999/xlink" x="0px" y="0px"
	 viewBox="0 0 144 252" style="enable-background:new 0 0 144 252;" xml:space="preserve">
<style type="text/css">
	.st0{fill:url(#SVGID_1_);}
	.st1{fill:url(#SVGID_2_);}
	.st2{fill:#A8BDDD;}
	.st3{opacity:0.2;fill:url(#SVGID_3_);}
	.st4{opacity:0.5;fill:url(#SVGID_4_);}
</style>
<linearGradient id="SVGID_1_" gradientUnits="userSpaceOnUse" x1="113.06" y1="121.26" x2="114.16" y2="121.26">
	<stop  offset="0" style="stop-color:#4183D7"/>
	<stop  offset="0.1423" style="stop-color:#447CD7"/>
	<stop  offset="0.3451" style="stop-color:#4D6AD9"/>
	<stop  offset="0.5832" style="stop-color:#5C4BDB"/>
	<stop  offset="0.5902" style="stop-color:#5C4ADB"/>
	<stop  offset="0.8604" style="stop-color:#6F5FE1"/>
	<stop  offset="1" style="stop-color:#7B6CE5"/>
</linearGradient>
<path class="st0" d="M113.5,121.2c-0.2-0.1-0.3-0.2-0.5-0.3c0.4,0.3,0.7,0.5,1.1,0.8C114,121.5,113.7,121.3,113.5,121.2z
	 M113.1,120.9c0.4,0.3,0.7,0.5,1.1,0.8c-0.2-0.2-0.4-0.3-0.6-0.5C113.4,121.1,113.2,121,113.1,120.9z"/>
<linearGradient id="SVGID_2_" gradientUnits="userSpaceOnUse" x1="0" y1="126" x2="144" y2="126">
	<stop  offset="0" style="stop-color:#4183D7"/>
	<stop  offset="0.1423" style="stop-color:#447CD7"/>
	<stop  offset="0.3451" style="stop-color:#4D6AD9"/>
	<stop  offset="0.5832" style="stop-color:#5C4BDB"/>
	<stop  offset="0.5902" style="stop-color:#5C4ADB"/>
	<stop  offset="0.8604" style="stop-color:#6F5FE1"/>
	<stop  offset="1" style="stop-color:#7B6CE5"/>
</linearGradient>
<path class="st1" d="M108,108v9.6c0.3,0.1,0.5,0.3,0.8,0.5c-3.3-1.9-6.7-3.6-10.2-5c-0.1,0-0.2-0.1-0.4-0.1c-0.9-0.4-1.9-0.7-2.8-1
	c-0.4-0.1-0.7-0.3-1.1-0.4c-0.2-0.1-0.3-0.1-0.5-0.2c-0.3-0.1-0.6-0.2-1-0.3c-1.4-0.4-2.8-0.8-4.2-1.1c-0.4-0.1-0.8-0.2-1.1-0.3
	c-0.8-0.2-1.5-0.3-2.3-0.5c-0.3-0.1-0.6-0.1-0.9-0.2c-1.6-0.3-3.3-0.5-5-0.7c-0.6,0-1.2-0.1-1.8-0.2c-0.5,0-1.1-0.1-1.6-0.1
	c-0.3,0-0.5,0-0.8,0c-0.3,0-0.6,0-0.8,0c-0.3,0-0.5,0-0.8,0c-0.5,0-1,0-1.5,0c-0.6,0-1.1,0-1.7,0c-0.6,0-1.1,0-1.7,0.1
	c-0.4,0-0.8,0-1.3,0.1c-0.8,0-1.5,0.1-2.3,0.2c-0.4,0-0.8,0.1-1.1,0.1c-0.4,0-0.8,0.1-1.1,0.1c-0.6,0.1-1.2,0.2-1.8,0.3
	c-0.5,0.1-0.9,0.2-1.4,0.2c-0.4,0.1-0.8,0.1-1.2,0.2c-0.6,0.1-1.2,0.2-1.8,0.4c-0.6,0.1-1.2,0.3-1.8,0.4c-0.6,0.1-1.2,0.3-1.8,0.5
	c-0.5,0.1-1.1,0.3-1.6,0.5c-0.8,0.2-1.5,0.5-2.2,0.7c-0.3,0.1-0.5,0.2-0.7,0.3c-2.9,1-5.8,2.2-8.5,3.6c-0.1,0-0.1,0.1-0.2,0.1
	c-0.4,0.2-0.8,0.4-1.1,0.6l-1.1,0.6c-0.5,0.3-1,0.6-1.6,0.9V0C16.1,0,0,16.1,0,36v144c0,0.7,0,1.3,0,2c0,0.7,0,1.3,0.1,2
	c0,0.4,0,0.7,0.1,1.1c0,0.7,0.1,1.3,0.2,1.9c0.1,1.4,0.3,2.8,0.5,4.1c0.1,0.7,0.2,1.4,0.4,2.1c0.1,0.7,0.3,1.4,0.4,2.1
	c0.1,0.5,0.2,1.1,0.4,1.6c0.2,0.9,0.4,1.7,0.7,2.5c0.1,0.2,0.1,0.5,0.2,0.7c0.6,1.9,1.2,3.8,1.9,5.7c0.1,0.3,0.3,0.7,0.4,1
	c1,2.4,2.1,4.8,3.3,7.1c0.2,0.5,0.5,0.9,0.7,1.3c0.2,0.3,0.4,0.7,0.6,1c0.4,0.7,0.8,1.4,1.3,2.1c0.3,0.5,0.6,0.9,0.9,1.4
	c0.3,0.4,0.6,0.9,0.9,1.3c0,0.1,0.1,0.1,0.1,0.2c0.5,0.7,1,1.4,1.5,2c0.5,0.7,1,1.4,1.6,2c0.3,0.3,0.5,0.6,0.8,0.9
	c0.3,0.3,0.5,0.7,0.8,1c0.3,0.3,0.5,0.6,0.8,0.9c2.3,2.6,4.8,5,7.5,7.2c0.3,0.2,0.6,0.5,0.9,0.7c0.5,0.4,0.9,0.8,1.4,1.1
	c0.1,0.1,0.2,0.1,0.2,0.2c0.4,0.3,0.9,0.7,1.3,1c0.1,0,0.1,0.1,0.2,0.1c0.3,0.2,0.5,0.4,0.8,0.6c0.5,0.4,1.1,0.8,1.6,1.1
	c0.6,0.4,1.3,0.8,1.9,1.2c0.4,0.3,0.8,0.5,1.2,0.7c0.3,0.2,0.6,0.3,0.9,0.5c2.7,1.6,5.5,2.9,8.5,4.1c0.6,0.2,1.2,0.5,1.8,0.7
	c0.1,0,0.1,0.1,0.2,0.1c0.7,0.3,1.3,0.5,2,0.7c0.6,0.2,1.2,0.4,1.8,0.6c0.7,0.2,1.4,0.4,2,0.6c0.9,0.2,1.7,0.5,2.6,0.7
	c0.5,0.1,0.9,0.2,1.4,0.3c0.1,0,0.2,0.1,0.3,0.1c0.4,0.1,0.7,0.2,1.1,0.2c1,0.2,2,0.4,3,0.5c0.5,0.1,0.9,0.1,1.4,0.2
	c0.4,0,0.7,0.1,1.1,0.1c0.7,0.1,1.4,0.2,2.1,0.2c0.1,0,0.1,0,0.2,0c0.7,0.1,1.4,0.1,2.2,0.2c0.7,0,1.3,0.1,2,0.1c0.7,0,1.3,0,2,0
	s1.3,0,2,0c0.7,0,1.3,0,2-0.1c0.6,0,1.2-0.1,1.8-0.1c0.7,0,1.4-0.1,2.1-0.2c0.6-0.1,1.3-0.1,1.9-0.2c0.2,0,0.3,0,0.4-0.1
	c0.5,0,0.9-0.1,1.3-0.2c0.2,0,0.3-0.1,0.5-0.1c0.8-0.1,1.6-0.3,2.4-0.5c0.8-0.1,1.5-0.3,2.3-0.5c0.1,0,0.3-0.1,0.4-0.1
	c0.5-0.1,1.1-0.3,1.6-0.4c0.7-0.2,1.4-0.4,2.1-0.6c0.4-0.1,0.7-0.2,1.1-0.3c0.7-0.2,1.4-0.5,2.1-0.7c0.3-0.1,0.7-0.2,1-0.4
	c0.7-0.2,1.3-0.5,2-0.8c0.8-0.3,1.5-0.6,2.2-0.9c0.3-0.1,0.5-0.2,0.8-0.4c0.3-0.1,0.5-0.3,0.8-0.4c0.3-0.2,0.6-0.3,0.9-0.4
	c0.3-0.1,0.5-0.2,0.8-0.4c0.2-0.1,0.4-0.2,0.7-0.3c0.1,0,0.1-0.1,0.2-0.1c0.3-0.1,0.5-0.3,0.8-0.4c0.1-0.1,0.3-0.1,0.4-0.2
	c0.6-0.3,1.2-0.7,1.8-1c0.6-0.3,1.2-0.7,1.8-1.1c0.6-0.4,1.2-0.7,1.7-1.1c0.6-0.4,1.1-0.8,1.7-1.2c0.5-0.4,1.1-0.8,1.6-1.2
	c0,0,0,0,0.1,0c0.5-0.4,1.1-0.8,1.6-1.3c0.3-0.2,0.5-0.4,0.8-0.6c0.3-0.2,0.5-0.4,0.8-0.7c1-0.9,2.1-1.8,3.1-2.7
	c0.5-0.5,1-0.9,1.5-1.4c0.2-0.2,0.5-0.5,0.7-0.7c0.2-0.2,0.5-0.5,0.7-0.7c0.6-0.6,1.2-1.3,1.8-1.9c0.3-0.4,0.7-0.8,1-1.2
	c0.2-0.2,0.4-0.4,0.6-0.7c0.9-1,1.7-2.1,2.5-3.2c0.3-0.3,0.5-0.7,0.8-1c0.5-0.7,0.9-1.4,1.4-2c0.3-0.5,0.6-0.9,0.9-1.4
	c0.2-0.3,0.4-0.6,0.5-0.9c0.2-0.3,0.4-0.6,0.5-0.9c0.3-0.6,0.7-1.2,1-1.8c0.2-0.4,0.5-0.9,0.7-1.3c0.2-0.4,0.4-0.8,0.6-1.3
	c0.8-1.7,1.6-3.3,2.3-5.1c0.2-0.5,0.4-0.9,0.5-1.4c0.2-0.5,0.4-1,0.6-1.5c0.2-0.7,0.5-1.3,0.7-2c0.1-0.2,0.1-0.3,0.2-0.5
	c0.2-0.6,0.4-1.3,0.6-1.9c0-0.2,0.1-0.3,0.1-0.5c0.2-0.7,0.3-1.3,0.5-2c0.2-0.8,0.4-1.6,0.5-2.3c0.4-1.9,0.7-3.7,0.9-5.7
	c0.1-0.4,0.1-0.9,0.2-1.3c0-0.3,0.1-0.5,0.1-0.8c0-0.5,0.1-0.9,0.1-1.4c0-0.4,0.1-0.8,0.1-1.2c0-0.7,0.1-1.4,0.1-2.2
	c0-0.2,0-0.4,0-0.6c0-0.5,0-1,0-1.5v-72H108z M23,220.1V220l0.2-0.2C23.1,219.9,23,220,23,220.1z M108,181.4c0,0.9-0.1,1.9-0.2,2.8
	c-0.1,0.8-0.2,1.6-0.3,2.4c-0.1,0.4-0.1,0.7-0.2,1.1c-0.1,0.4-0.2,0.7-0.3,1.1c-0.1,0.3-0.2,0.6-0.3,0.9c-0.2,0.6-0.3,1.2-0.5,1.8
	c-0.1,0.2-0.1,0.4-0.2,0.6c-0.1,0.2-0.1,0.4-0.2,0.6c-0.7,1.8-1.5,3.6-2.5,5.3c-0.2,0.3-0.4,0.7-0.6,1c-0.3,0.4-0.5,0.8-0.8,1.2
	c-0.2,0.4-0.5,0.7-0.8,1.1c-0.3,0.3-0.5,0.7-0.8,1c-0.3,0.3-0.5,0.7-0.8,1c-0.8,1-1.7,1.9-2.7,2.8c-0.3,0.3-0.6,0.6-1,0.9
	c-0.3,0.3-0.6,0.6-1,0.8c-1,0.8-2.1,1.6-3.1,2.3c-0.4,0.2-0.7,0.5-1.1,0.7c-0.4,0.2-0.8,0.5-1.1,0.7c-0.2,0.1-0.4,0.2-0.6,0.3
	c-1,0.5-1.9,1-3,1.4c-1.5,0.6-3,1.2-4.6,1.6c-0.3,0.1-0.6,0.2-0.9,0.2c-0.4,0.1-0.8,0.2-1.1,0.3c0,0-0.1,0-0.1,0
	c-0.3,0.1-0.7,0.1-1.1,0.2c-0.4,0.1-0.8,0.1-1.2,0.2c-0.3,0.1-0.7,0.1-1,0.1c-0.7,0.1-1.3,0.1-2,0.2c-0.1,0-0.1,0-0.2,0
	c-0.6,0-1.2,0-1.8,0s-1.2,0-1.8,0c-0.1,0-0.1,0-0.2,0c-0.7,0-1.3-0.1-2-0.2c-0.3,0-0.7-0.1-1-0.1c-0.7-0.1-1.4-0.2-2.1-0.3
	c-0.4-0.1-0.7-0.1-1.1-0.2c-0.2,0-0.3-0.1-0.5-0.1c-0.2,0-0.3-0.1-0.5-0.1c-0.7-0.2-1.3-0.4-2-0.6c-0.3-0.1-0.6-0.2-0.9-0.3
	c-0.3-0.1-0.6-0.2-0.9-0.3c-0.2,0-0.3-0.1-0.5-0.2c-0.2-0.1-0.4-0.2-0.6-0.3c-0.2-0.1-0.4-0.2-0.6-0.3c-0.2-0.1-0.3-0.1-0.5-0.2
	c-0.5-0.2-0.9-0.4-1.4-0.7c-0.3-0.2-0.6-0.3-0.9-0.5c-0.3-0.2-0.6-0.3-0.9-0.5c-0.3-0.2-0.5-0.3-0.8-0.5c-0.6-0.4-1.2-0.8-1.7-1.1
	c-0.3-0.2-0.5-0.4-0.8-0.6c-0.3-0.2-0.6-0.4-0.9-0.7c-0.3-0.2-0.6-0.5-0.9-0.8c-0.1-0.1-0.2-0.1-0.3-0.2c-0.3-0.2-0.5-0.4-0.7-0.7
	c-0.3-0.3-0.6-0.6-1-0.9c-0.3-0.3-0.5-0.5-0.8-0.8c-0.3-0.3-0.6-0.6-0.8-0.9c-0.8-0.9-1.5-1.8-2.2-2.8c-0.3-0.4-0.6-0.9-0.9-1.3
	c-0.2-0.3-0.4-0.6-0.6-0.9c-0.2-0.3-0.3-0.6-0.5-0.9c-0.4-0.7-0.8-1.4-1.1-2.1c-0.2-0.4-0.4-0.8-0.5-1.1c-0.2-0.5-0.5-1.1-0.7-1.6
	c-0.1-0.3-0.3-0.6-0.4-1c-0.1-0.3-0.2-0.5-0.3-0.8c-0.1-0.3-0.2-0.6-0.3-0.8c0,0,0-0.1,0-0.1c-0.1-0.2-0.1-0.4-0.2-0.6
	c-0.1-0.3-0.2-0.6-0.3-0.9c-0.3-1.1-0.5-2.2-0.7-3.3c0-0.2-0.1-0.4-0.1-0.6c0-0.4-0.1-0.7-0.1-1.1c0-0.4-0.1-0.7-0.1-1.1
	c0-0.3,0-0.7-0.1-1c0-0.2,0-0.3,0-0.5c0-0.5,0-0.9,0-1.3c0-0.5,0-1,0-1.5c0-0.1,0-0.2,0-0.3c0-0.1,0-0.3,0-0.4c0-0.3,0-0.5,0.1-0.8
	c0-0.1,0-0.2,0-0.3c0-0.1,0-0.2,0-0.3c0-0.2,0-0.4,0.1-0.7c0-0.2,0-0.4,0.1-0.6c0,0,0-0.1,0-0.1c0-0.3,0.1-0.5,0.1-0.8
	c0-0.3,0.1-0.5,0.1-0.8c0,0,0,0,0,0c0.1-0.5,0.2-1.1,0.3-1.6c0.1-0.3,0.1-0.6,0.2-0.9c0-0.1,0.1-0.3,0.1-0.4
	c0.1-0.2,0.1-0.4,0.2-0.6c0.1-0.3,0.2-0.7,0.3-1c0.1-0.3,0.2-0.5,0.3-0.8c0.1-0.3,0.2-0.6,0.3-0.9c0.1-0.2,0.2-0.4,0.3-0.7
	c0.2-0.4,0.3-0.7,0.5-1.1c0.2-0.4,0.4-0.9,0.6-1.3c0.1-0.2,0.2-0.4,0.3-0.6l0.1-0.2l0.1-0.2c0.1-0.1,0.1-0.3,0.2-0.4
	c0.3-0.5,0.5-0.9,0.8-1.4c0.1-0.2,0.3-0.4,0.4-0.7c0.1-0.2,0.3-0.4,0.4-0.6c0.6-0.9,1.2-1.8,1.9-2.6c0.3-0.4,0.7-0.8,1-1.2
	c0.2-0.2,0.4-0.5,0.6-0.7c0.2-0.2,0.4-0.5,0.6-0.7c0.2-0.2,0.4-0.4,0.7-0.7c0.4-0.3,0.7-0.7,1.1-1c0.4-0.3,0.7-0.6,1.1-1
	c0.4-0.4,0.9-0.7,1.4-1.1c0.5-0.3,0.9-0.7,1.4-1c0.4-0.3,0.9-0.6,1.3-0.9c0.1-0.1,0.3-0.2,0.4-0.2c0.3-0.2,0.5-0.3,0.8-0.5
	c0.3-0.2,0.5-0.3,0.8-0.4c0.5-0.2,0.9-0.5,1.4-0.7c1-0.5,2-0.9,3-1.3c0.3-0.1,0.6-0.2,0.8-0.3c0.7-0.2,1.4-0.5,2.1-0.7
	c0.2-0.1,0.4-0.1,0.6-0.2c0.5-0.1,1-0.2,1.5-0.3c0.3-0.1,0.5-0.1,0.8-0.2c0.3,0,0.5-0.1,0.8-0.1c0.3,0,0.5-0.1,0.8-0.1
	c0.5-0.1,1.1-0.1,1.6-0.2c0.3,0,0.5,0,0.8-0.1c0.8-0.1,1.7-0.1,2.5-0.1c19.9,0,36,16.1,36,36C108,180.5,108,180.9,108,181.4z
	 M113.1,120.9c0.2,0.1,0.3,0.2,0.5,0.3c0.2,0.2,0.4,0.3,0.6,0.5C113.8,121.4,113.4,121.1,113.1,120.9z M121.2,127.4
	c-0.9-0.8-1.8-1.7-2.8-2.5c0.3,0.2,0.5,0.4,0.8,0.7c0.4,0.4,0.8,0.7,1.3,1.1C120.7,126.9,120.9,127.2,121.2,127.4
	c0.1,0.1,0.2,0.2,0.4,0.3c0.2,0.2,0.4,0.4,0.6,0.6C121.8,128,121.5,127.7,121.2,127.4z M131.3,139.2c0.1,0.2,0.3,0.4,0.4,0.5
	c0.2,0.3,0.4,0.6,0.6,0.9C132,140.1,131.6,139.7,131.3,139.2z M136,147.1c0,0,0.1,0.1,0.1,0.2c0.1,0.2,0.2,0.4,0.3,0.5
	C136.3,147.5,136.2,147.3,136,147.1z M140.1,156.6c0,0,0,0.1,0.1,0.2c0.1,0.2,0.1,0.4,0.2,0.6C140.3,157.1,140.2,156.9,140.1,156.6z
	 M141.3,160.3C141.3,160.3,141.3,160.4,141.3,160.3c0.2,0.6,0.3,1.2,0.5,1.7C141.6,161.4,141.4,160.9,141.3,160.3z"/>
<path class="st2" d="M24.2,189.8c-0.1,0.1-0.1,0.2-0.2,0.3V190L24.2,189.8z"/>
<path class="st2" d="M24.2,189.8c-0.1,0.1-0.1,0.2-0.2,0.3V190L24.2,189.8z"/>
<linearGradient id="SVGID_3_" gradientUnits="userSpaceOnUse" x1="30" y1="144" x2="138" y2="144">
	<stop  offset="0" style="stop-color:#000000"/>
	<stop  offset="7.075590e-02" style="stop-color:#2B2B2B;stop-opacity:0.9292"/>
	<stop  offset="0.164" style="stop-color:#5C5C5C;stop-opacity:0.836"/>
	<stop  offset="0.2621" style="stop-color:#888888;stop-opacity:0.7379"/>
	<stop  offset="0.3635" style="stop-color:#ADADAD;stop-opacity:0.6365"/>
	<stop  offset="0.4688" style="stop-color:#CBCBCB;stop-opacity:0.5312"/>
	<stop  offset="0.5795" style="stop-color:#E2E2E2;stop-opacity:0.4205"/>
	<stop  offset="0.6979" style="stop-color:#F2F2F2;stop-opacity:0.3021"/>
	<stop  offset="0.8293" style="stop-color:#FCFCFC;stop-opacity:0.1707"/>
	<stop  offset="1" style="stop-color:#FFFFFF;stop-opacity:0"/>
</linearGradient>
<path class="st3" d="M144,180h-36c0-19.9-16.1-36-36-36s-36,16.1-36,36v-62.4c10.6-6.1,22.9-9.6,36-9.6C111.8,108,144,140.2,144,180
	z"/>
<linearGradient id="SVGID_4_" gradientUnits="userSpaceOnUse" x1="129.9789" y1="140.4698" x2="172.2672" y2="102.9509">
	<stop  offset="0" style="stop-color:#000000;stop-opacity:0.2"/>
	<stop  offset="7.380247e-03" style="stop-color:#090909;stop-opacity:0.1985"/>
	<stop  offset="4.767627e-02" style="stop-color:#373737;stop-opacity:0.1905"/>
	<stop  offset="9.308982e-02" style="stop-color:#626262;stop-opacity:0.1814"/>
	<stop  offset="0.1419" style="stop-color:#888888;stop-opacity:0.1716"/>
	<stop  offset="0.195" style="stop-color:#A8A8A8;stop-opacity:0.161"/>
	<stop  offset="0.2537" style="stop-color:#C4C4C4;stop-opacity:0.1493"/>
	<stop  offset="0.32" style="stop-color:#DADADA;stop-opacity:0.136"/>
	<stop  offset="0.3974" style="stop-color:#EBEBEB;stop-opacity:0.1205"/>
	<stop  offset="0.4931" style="stop-color:#F6F6F6;stop-opacity:0.1014"/>
	<stop  offset="0.6274" style="stop-color:#FDFDFD;stop-opacity:7.452855e-02"/>
	<stop  offset="1" style="stop-color:#FFFFFF;stop-opacity:0"/>
</linearGradient>
<path class="st4" d="M144,108v72c0-3.7-0.3-7.4-0.8-11c-0.1-0.9-0.3-1.7-0.5-2.6c-0.1-0.4-0.2-0.9-0.3-1.3c-0.1-0.4-0.2-0.9-0.3-1.3
	c-0.1-0.3-0.1-0.5-0.2-0.8c-0.1-0.4-0.2-0.7-0.3-1c-0.1-0.5-0.3-1.1-0.4-1.6c-0.2-0.8-0.5-1.6-0.7-2.4c-0.1-0.4-0.3-0.8-0.4-1.2
	c-0.2-0.5-0.3-0.9-0.5-1.4c-0.2-0.5-0.3-1-0.5-1.4c-0.1-0.3-0.2-0.6-0.4-0.9c-0.5-1.3-1.1-2.5-1.7-3.8c-0.3-0.7-0.7-1.4-1-2
	c-0.1-0.1-0.1-0.2-0.2-0.4c-0.3-0.7-0.7-1.4-1.1-2.1c0,0,0-0.1-0.1-0.1c-0.4-0.7-0.8-1.4-1.2-2c0-0.1-0.1-0.1-0.1-0.2
	c-0.4-0.6-0.8-1.3-1.2-1.9c-0.2-0.3-0.4-0.6-0.6-0.9c-0.8-1.2-1.6-2.3-2.5-3.5c0,0,0,0,0,0c-1-1.3-2.1-2.6-3.2-3.9
	c-1-1.1-2-2.2-3-3.2c-0.3-0.3-0.5-0.6-0.8-0.8c-0.2-0.2-0.4-0.4-0.6-0.6c-0.4-0.3-0.7-0.7-1.1-1c-0.4-0.4-0.8-0.8-1.3-1.1
	c-2.4-2.1-4.9-4-7.6-5.8c-0.3-0.2-0.7-0.5-1-0.7c-0.8-0.5-1.7-1-2.5-1.5V108H144z"/>
</svg>
