<?xml version="1.0" encoding="utf-8"?>
<!-- Generator: Adobe Illustrator 22.0.1, SVG Export Plug-In . SVG Version: 6.00 Build 0)  -->
<svg version="1.1" id="Ebene_1" xmlns="http://www.w3.org/2000/svg" xmlns:xlink="http://www.w3.org/1999/xlink" x="0px" y="0px"
	 viewBox="0 0 310 67" style="enable-background:new 0 0 310 67;" xml:space="preserve">
<style type="text/css">
	.st0{fill:url(#SVGID_1_);}
	.st1{fill:url(#SVGID_2_);}
	.st2{fill:url(#SVGID_3_);}
	.st3{fill:url(#SVGID_4_);}
	.st4{fill:url(#SVGID_5_);}
	.st5{fill:url(#SVGID_6_);}
	.st6{fill:url(#SVGID_7_);}
	.st7{fill:url(#SVGID_8_);}
	.st8{fill:#FFFFFF;}
</style>
<g>
	<linearGradient id="SVGID_1_" gradientUnits="userSpaceOnUse" x1="155" y1="67" x2="155" y2="-9.094947e-13">
		<stop  offset="0" style="stop-color:#4183D7"/>
		<stop  offset="0.2412" style="stop-color:#447CD7"/>
		<stop  offset="0.5847" style="stop-color:#4D6AD9"/>
		<stop  offset="0.9881" style="stop-color:#5C4BDB"/>
		<stop  offset="1" style="stop-color:#5C4ADB"/>
	</linearGradient>
	<path class="st0" d="M306,0H4H0v4v59v4h4h302h4V0H306z M4,63V4h194v59H4z"/>
	<g>
		<linearGradient id="SVGID_2_" gradientUnits="userSpaceOnUse" x1="28.8359" y1="14.7051" x2="28.8359" y2="47.6514">
			<stop  offset="0" style="stop-color:#4183D7"/>
			<stop  offset="0.2412" style="stop-color:#447CD7"/>
			<stop  offset="0.5847" style="stop-color:#4D6AD9"/>
			<stop  offset="0.9881" style="stop-color:#5C4BDB"/>
			<stop  offset="1" style="stop-color:#5C4ADB"/>
		</linearGradient>
		<path class="st1" d="M42.3,37.5v10.2H15.7v-0.8c2,0,3.3-2.1,3.3-5.2V19.7c0-2.9-1.7-4.2-3.7-4.2v-0.8h14.8v0.8
			c-2,0-4.4,0.8-4.4,4.2v27.2h1.7c0,0,12.4,0,14-9.4H42.3z"/>
		<linearGradient id="SVGID_3_" gradientUnits="userSpaceOnUse" x1="57.3616" y1="25.6094" x2="57.3616" y2="48.0723">
			<stop  offset="0" style="stop-color:#4183D7"/>
			<stop  offset="0.2412" style="stop-color:#447CD7"/>
			<stop  offset="0.5847" style="stop-color:#4D6AD9"/>
			<stop  offset="0.9881" style="stop-color:#5C4BDB"/>
			<stop  offset="1" style="stop-color:#5C4ADB"/>
		</linearGradient>
		<path class="st2" d="M67.8,36.4H52.9c0.4,4.6,2.7,7,5.9,7.7c2.5,0.6,6.3-0.4,7.4-2.6l0.8,0.4c-0.7,2.4-3.5,6.1-9.8,6.1
			c-6.1,0-10.3-5.7-10.3-11.1c0-6.6,4.5-11.3,11-11.3C64.6,25.6,67.8,29.1,67.8,36.4z M62.1,35.6c0-5.9-1.9-9.2-4.5-9.2
			c-2.8,0-4.7,4.7-4.7,9.2H62.1z"/>
		<linearGradient id="SVGID_4_" gradientUnits="userSpaceOnUse" x1="82.7971" y1="25.6094" x2="82.7971" y2="48.0723">
			<stop  offset="0" style="stop-color:#4183D7"/>
			<stop  offset="0.2412" style="stop-color:#447CD7"/>
			<stop  offset="0.5847" style="stop-color:#4D6AD9"/>
			<stop  offset="0.9881" style="stop-color:#5C4BDB"/>
			<stop  offset="1" style="stop-color:#5C4ADB"/>
		</linearGradient>
		<path class="st3" d="M93.9,36.8c0,6.1-4,11.2-11.1,11.2c-7.1,0-11.1-5.1-11.1-11.2c0-6.2,4-11.2,11.1-11.2
			C90,25.6,93.9,30.7,93.9,36.8z M87,36.8c0-8.5-0.8-10.4-4.2-10.4c-3.4,0-4.3,2-4.3,10.4s0.9,10.4,4.3,10.4
			C86.2,47.3,87,45.3,87,36.8z"/>
		<linearGradient id="SVGID_5_" gradientUnits="userSpaceOnUse" x1="109.1694" y1="25.6094" x2="109.1694" y2="60.0527">
			<stop  offset="0" style="stop-color:#4183D7"/>
			<stop  offset="0.2412" style="stop-color:#447CD7"/>
			<stop  offset="0.5847" style="stop-color:#4D6AD9"/>
			<stop  offset="0.9881" style="stop-color:#5C4BDB"/>
			<stop  offset="1" style="stop-color:#5C4ADB"/>
		</linearGradient>
		<path class="st4" d="M121.8,37c0,7.5-5,11-11.5,11c-2.2,0-4.1-0.5-5.6-1.5v8.1c0,2.6,0.3,4.1,1.9,4.5v0.8H97v-0.8
			c1.8-0.5,1.9-2.2,1.9-4.5V30.9c0-1.6-0.5-1.9-2.3-2.6v-0.8l8.1-1.9v3.8c1.5-2.8,4.9-3.8,7.1-3.8C117.1,25.6,121.8,29.7,121.8,37z
			 M115.1,37.4c0-7.5-1.8-10.1-5.6-10.1c-2.8,0-4.5,2.2-4.8,5.1V41c0.4,4.8,3.1,6.3,5.5,6.3C113.6,47.3,115.1,44.6,115.1,37.4z"/>
		<linearGradient id="SVGID_6_" gradientUnits="userSpaceOnUse" x1="137.0398" y1="25.6094" x2="137.0398" y2="48.0723">
			<stop  offset="0" style="stop-color:#4183D7"/>
			<stop  offset="0.2412" style="stop-color:#447CD7"/>
			<stop  offset="0.5847" style="stop-color:#4D6AD9"/>
			<stop  offset="0.9881" style="stop-color:#5C4BDB"/>
			<stop  offset="1" style="stop-color:#5C4ADB"/>
		</linearGradient>
		<path class="st5" d="M148.2,36.8c0,6.1-4,11.2-11.1,11.2c-7.1,0-11.1-5.1-11.1-11.2c0-6.2,4-11.2,11.1-11.2
			C144.2,25.6,148.2,30.7,148.2,36.8z M141.3,36.8c0-8.5-0.8-10.4-4.2-10.4c-3.4,0-4.3,2-4.3,10.4s0.9,10.4,4.3,10.4
			C140.4,47.3,141.3,45.3,141.3,36.8z"/>
		<linearGradient id="SVGID_7_" gradientUnits="userSpaceOnUse" x1="156.1116" y1="12.7393" x2="156.1116" y2="47.6514">
			<stop  offset="0" style="stop-color:#4183D7"/>
			<stop  offset="0.2412" style="stop-color:#447CD7"/>
			<stop  offset="0.5847" style="stop-color:#4D6AD9"/>
			<stop  offset="0.9881" style="stop-color:#5C4BDB"/>
			<stop  offset="1" style="stop-color:#5C4ADB"/>
		</linearGradient>
		<path class="st6" d="M161.1,46.9v0.8h-9.6v-0.8c1.8-0.5,1.9-2.5,1.9-4.9V18.3c0-1.6-0.5-2.3-2.3-3v-0.8l8.2-1.7V42
			C159.3,44.6,159.5,46.4,161.1,46.9z"/>
		<linearGradient id="SVGID_8_" gradientUnits="userSpaceOnUse" x1="176.6094" y1="12.7393" x2="176.6094" y2="48.0723">
			<stop  offset="0" style="stop-color:#4183D7"/>
			<stop  offset="0.2412" style="stop-color:#447CD7"/>
			<stop  offset="0.5847" style="stop-color:#4D6AD9"/>
			<stop  offset="0.9881" style="stop-color:#5C4BDB"/>
			<stop  offset="1" style="stop-color:#5C4ADB"/>
		</linearGradient>
		<path class="st7" d="M189.3,46.2V47l-6.9,1c-1.3,0.2-1.3-0.8-1.3-0.8v-2.9c-1.5,2.8-5,3.8-7.2,3.8c-5.3,0-10-4.2-10-11.6
			c0-7.5,5-10.9,11.5-10.9c2.2,0,4.1,0.5,5.6,1.4v-8.9c0-1.6-0.5-2.1-2.4-2.8v-0.8l8.2-1.7v30.4C186.9,45.4,187.3,46,189.3,46.2z
			 M181.1,34.2c0-5.9-2.9-7.8-5.6-7.8c-3.4,0-4.9,2.6-4.9,9.7c0,7.5,1.5,10.3,5.3,10.3c3.2,0,5.1-2.3,5.1-5.6V34.2z"/>
	</g>
	<g>
		<path class="st8" d="M207.6,17.1H218c6.3,0,11.2,1.7,11.2,7.6c0,2.7-1.5,5.6-4,6.6v0.2c3.1,0.8,5.5,3.1,5.5,7.2
			c0,6.2-5.2,9-11.9,9h-11.3V17.1z M217.7,29.4c3.3,0,4.8-1.4,4.8-3.6c0-2.3-1.6-3.3-4.8-3.3h-3.3v6.9H217.7z M218.4,42.3
			c3.8,0,5.7-1.3,5.7-4.1c0-2.7-1.9-3.8-5.7-3.8h-3.9v7.9H218.4z"/>
		<path class="st8" d="M235.4,40.4V14.9h6.9v25.9c0,1.5,0.7,1.9,1.2,1.9c0.3,0,0.5,0,0.8-0.1l0.8,5.1c-0.8,0.3-1.9,0.6-3.5,0.6
			C237,48.2,235.4,45.1,235.4,40.4z"/>
		<path class="st8" d="M247.7,41.2c0-4.9,3.9-7.5,13.1-8.5c-0.1-2-1.2-3.4-3.7-3.4c-1.9,0-3.9,0.8-6.1,2.1l-2.4-4.5
			c2.9-1.8,6.3-3.1,9.9-3.1c5.9,0,9.2,3.4,9.2,10.5v13.3H262l-0.5-2.4h-0.2c-2,1.7-4.1,2.9-6.8,2.9
			C250.4,48.2,247.7,45.1,247.7,41.2z M260.8,40.9v-4.1c-4.9,0.7-6.5,2.1-6.5,3.8c0,1.5,1,2.2,2.7,2.2
			C258.5,42.9,259.5,42.1,260.8,40.9z"/>
		<path class="st8" d="M273.2,38.8V24.4h6.9V38c0,3.3,0.9,4.4,2.9,4.4c1.7,0,2.8-0.7,4.1-2.6V24.4h6.9v23.2h-5.6l-0.5-3.2h-0.2
			c-1.9,2.3-4.1,3.8-7.3,3.8C275.4,48.2,273.2,44.6,273.2,38.8z"/>
	</g>
</g>
</svg>
