<?xml version="1.0" encoding="utf-8"?>
<!-- Generator: Adobe Illustrator 22.0.1, SVG Export Plug-In . SVG Version: 6.00 Build 0)  -->
<svg version="1.1" id="Ebene_1" xmlns="http://www.w3.org/2000/svg" xmlns:xlink="http://www.w3.org/1999/xlink" x="0px" y="0px"
	 viewBox="0 0 310 67" style="enable-background:new 0 0 310 67;" xml:space="preserve">
<style type="text/css">
	.st0{fill:url(#SVGID_1_);}
	.st1{fill:url(#SVGID_2_);}
	.st2{fill:url(#SVGID_3_);}
	.st3{fill:url(#SVGID_4_);}
	.st4{fill:url(#SVGID_5_);}
	.st5{fill:url(#SVGID_6_);}
	.st6{fill:url(#SVGID_7_);}
	.st7{fill:url(#SVGID_8_);}
	.st8{fill:#FFFFFF;}
</style>
<g>
	<linearGradient id="SVGID_1_" gradientUnits="userSpaceOnUse" x1="155" y1="67" x2="155" y2="-9.094947e-13">
		<stop  offset="0" style="stop-color:#4183D7"/>
		<stop  offset="0.2412" style="stop-color:#447CD7"/>
		<stop  offset="0.5847" style="stop-color:#4D6AD9"/>
		<stop  offset="0.9881" style="stop-color:#5C4BDB"/>
		<stop  offset="1" style="stop-color:#5C4ADB"/>
	</linearGradient>
	<path class="st0" d="M0,0v67h310V0H0z M198,63H4V4h194V63z"/>
	<g>
		<linearGradient id="SVGID_2_" gradientUnits="userSpaceOnUse" x1="25.42" y1="14.71" x2="25.42" y2="47.65">
			<stop  offset="0" style="stop-color:#4183D7"/>
			<stop  offset="0.2412" style="stop-color:#447CD7"/>
			<stop  offset="0.5847" style="stop-color:#4D6AD9"/>
			<stop  offset="0.9881" style="stop-color:#5C4BDB"/>
			<stop  offset="1" style="stop-color:#5C4ADB"/>
		</linearGradient>
		<path class="st1" d="M38.4,37.5c-1.6,9.4-14.3,9.4-14.3,9.4h-1.7V19.7c0-3.4,2.4-4.2,4.4-4.2v-0.8H11.7v0.8c2,0,3.8,1.3,3.8,4.2
			v21.9c0,3.2-1.3,5.3-3.4,5.3v0.8h27.1V37.5H38.4z"/>
		<linearGradient id="SVGID_3_" gradientUnits="userSpaceOnUse" x1="54.52" y1="25.61" x2="54.52" y2="48.07">
			<stop  offset="0" style="stop-color:#4183D7"/>
			<stop  offset="0.2412" style="stop-color:#447CD7"/>
			<stop  offset="0.5847" style="stop-color:#4D6AD9"/>
			<stop  offset="0.9881" style="stop-color:#5C4BDB"/>
			<stop  offset="1" style="stop-color:#5C4ADB"/>
		</linearGradient>
		<path class="st2" d="M56,44.1c-3.2-0.7-5.6-3.1-6-7.7h15.2c0-7.3-3.3-10.8-10.2-10.8c-6.6,0-11.2,4.7-11.2,11.3
			c0,5.5,4.3,11.1,10.6,11.1c6.4,0,9.2-3.7,10-6.1l-0.8-0.4C62.4,43.7,58.5,44.7,56,44.1z M54.8,26.4c2.6,0,4.6,3.3,4.6,9.2H50
			C50,31.1,52,26.4,54.8,26.4z"/>
		<linearGradient id="SVGID_4_" gradientUnits="userSpaceOnUse" x1="80.47" y1="25.61" x2="80.47" y2="48.07">
			<stop  offset="0" style="stop-color:#4183D7"/>
			<stop  offset="0.2412" style="stop-color:#447CD7"/>
			<stop  offset="0.5847" style="stop-color:#4D6AD9"/>
			<stop  offset="0.9881" style="stop-color:#5C4BDB"/>
			<stop  offset="1" style="stop-color:#5C4ADB"/>
		</linearGradient>
		<path class="st3" d="M80.5,25.6c-7.3,0-11.4,5-11.4,11.2c0,6.1,4.1,11.2,11.4,11.2c7.3,0,11.4-5.1,11.4-11.2
			C91.8,30.7,87.8,25.6,80.5,25.6z M80.5,47.3c-3.4,0-4.3-2-4.3-10.4c0-8.5,0.9-10.4,4.3-10.4c3.4,0,4.3,2,4.3,10.4
			C84.8,45.3,83.9,47.3,80.5,47.3z"/>
		<linearGradient id="SVGID_5_" gradientUnits="userSpaceOnUse" x1="107.375" y1="25.61" x2="107.375" y2="60.05">
			<stop  offset="0" style="stop-color:#4183D7"/>
			<stop  offset="0.2412" style="stop-color:#447CD7"/>
			<stop  offset="0.5847" style="stop-color:#4D6AD9"/>
			<stop  offset="0.9881" style="stop-color:#5C4BDB"/>
			<stop  offset="1" style="stop-color:#5C4ADB"/>
		</linearGradient>
		<path class="st4" d="M110.1,25.6c-2.2,0-5.7,1-7.3,3.8v-3.8l-8.3,1.9v0.8c1.9,0.7,2.4,1,2.4,2.6v23.8c0,2.4-0.1,4-1.9,4.5V60h9.8
			v-0.8c-1.7-0.4-2-1.9-2-4.5v-8.1c1.5,0.9,3.5,1.5,5.7,1.5c6.7,0,11.7-3.5,11.7-11C120.2,29.7,115.5,25.6,110.1,25.6z M108.4,47.3
			c-2.4,0-5.2-1.5-5.6-6.3v-8.6c0.3-2.8,2-5.1,4.9-5.1c3.9,0,5.7,2.6,5.7,10.1C113.4,44.6,111.9,47.3,108.4,47.3z"/>
		<linearGradient id="SVGID_6_" gradientUnits="userSpaceOnUse" x1="135.81" y1="25.61" x2="135.81" y2="48.07">
			<stop  offset="0" style="stop-color:#4183D7"/>
			<stop  offset="0.2412" style="stop-color:#447CD7"/>
			<stop  offset="0.5847" style="stop-color:#4D6AD9"/>
			<stop  offset="0.9881" style="stop-color:#5C4BDB"/>
			<stop  offset="1" style="stop-color:#5C4ADB"/>
		</linearGradient>
		<path class="st5" d="M135.8,25.6c-7.3,0-11.4,5-11.4,11.2c0,6.1,4.1,11.2,11.4,11.2c7.3,0,11.4-5.1,11.4-11.2
			C147.2,30.7,143.1,25.6,135.8,25.6z M135.8,47.3c-3.4,0-4.3-2-4.3-10.4c0-8.5,0.9-10.4,4.3-10.4s4.3,2,4.3,10.4
			C140.1,45.3,139.3,47.3,135.8,47.3z"/>
		<linearGradient id="SVGID_7_" gradientUnits="userSpaceOnUse" x1="155.265" y1="12.74" x2="155.265" y2="47.65">
			<stop  offset="0" style="stop-color:#4183D7"/>
			<stop  offset="0.2412" style="stop-color:#447CD7"/>
			<stop  offset="0.5847" style="stop-color:#4D6AD9"/>
			<stop  offset="0.9881" style="stop-color:#5C4BDB"/>
			<stop  offset="1" style="stop-color:#5C4ADB"/>
		</linearGradient>
		<path class="st6" d="M158.5,42V12.7l-8.4,1.7v0.8c1.9,0.7,2.4,1.4,2.4,3V42c0,2.4-0.1,4.3-1.9,4.9v0.8h9.8v-0.8
			C158.7,46.4,158.5,44.6,158.5,42z"/>
		<linearGradient id="SVGID_8_" gradientUnits="userSpaceOnUse" x1="176.175" y1="12.74" x2="176.175" y2="48.07">
			<stop  offset="0" style="stop-color:#4183D7"/>
			<stop  offset="0.2412" style="stop-color:#447CD7"/>
			<stop  offset="0.5847" style="stop-color:#4D6AD9"/>
			<stop  offset="0.9881" style="stop-color:#5C4BDB"/>
			<stop  offset="1" style="stop-color:#5C4ADB"/>
		</linearGradient>
		<path class="st7" d="M186.7,43.1V12.7l-8.4,1.7v0.8c2,0.7,2.4,1.2,2.4,2.8V27c-1.5-0.9-3.5-1.4-5.7-1.4c-6.7,0-11.8,3.4-11.8,10.9
			c0,7.4,4.8,11.6,10.2,11.6c2.3,0,5.8-1,7.3-3.8v2.9c0,0,0,1,1.3,0.8l7-1v-0.8C187.1,46,186.7,45.4,186.7,43.1z M180.7,40.8
			c0,3.3-2,5.6-5.3,5.6c-3.9,0-5.4-2.8-5.4-10.3c0-7.1,1.5-9.7,5-9.7c2.7,0,5.7,1.9,5.7,7.8V40.8z"/>
	</g>
</g>
<g>
	<path class="st8" d="M211.6,17.1H222c6.3,0,11.2,1.7,11.2,7.6c0,2.7-1.5,5.6-4,6.6v0.2c3.1,0.8,5.5,3.1,5.5,7.2c0,6.2-5.2,9-11.9,9
		h-11.3V17.1z M221.7,29.4c3.3,0,4.8-1.4,4.8-3.6c0-2.3-1.6-3.3-4.8-3.3h-3.3v6.9H221.7z M222.4,42.3c3.8,0,5.7-1.3,5.7-4.1
		c0-2.7-1.9-3.8-5.7-3.8h-3.9v7.9H222.4z"/>
	<path class="st8" d="M239.4,40.4V14.9h6.9v25.9c0,1.5,0.7,1.9,1.2,1.9c0.3,0,0.5,0,0.8-0.1l0.8,5.1c-0.8,0.3-1.9,0.6-3.5,0.6
		C241,48.2,239.4,45.1,239.4,40.4z"/>
	<path class="st8" d="M251.7,41.2c0-4.9,3.9-7.5,13.1-8.5c-0.1-2-1.2-3.4-3.7-3.4c-1.9,0-3.9,0.8-6.1,2.1l-2.4-4.5
		c2.9-1.8,6.3-3.1,9.9-3.1c5.9,0,9.2,3.4,9.2,10.5v13.3H266l-0.5-2.4h-0.2c-2,1.7-4.1,2.9-6.8,2.9C254.4,48.2,251.7,45.1,251.7,41.2
		z M264.8,40.9v-4.1c-4.9,0.7-6.5,2.1-6.5,3.8c0,1.5,1,2.2,2.7,2.2C262.5,42.9,263.5,42.1,264.8,40.9z"/>
	<path class="st8" d="M277.2,38.8V24.4h6.9V38c0,3.3,0.9,4.4,2.9,4.4c1.7,0,2.8-0.7,4.1-2.6V24.4h6.9v23.2h-5.6l-0.5-3.2h-0.2
		c-1.9,2.3-4.1,3.8-7.3,3.8C279.4,48.2,277.2,44.6,277.2,38.8z"/>
</g>
</svg>
