<?xml version="1.0" encoding="utf-8"?>
<!-- Generator: Adobe Illustrator 22.0.1, SVG Export Plug-In . SVG Version: 6.00 Build 0)  -->
<svg version="1.1" id="Ebene_1" xmlns="http://www.w3.org/2000/svg" xmlns:xlink="http://www.w3.org/1999/xlink" x="0px" y="0px"
	 viewBox="0 0 314 67" style="enable-background:new 0 0 314 67;" xml:space="preserve">
<style type="text/css">
	.st0{fill:#FFFFFF;}
	.st1{fill:url(#SVGID_1_);}
	.st2{fill:url(#SVGID_2_);}
	.st3{fill:url(#SVGID_3_);}
	.st4{fill:url(#SVGID_4_);}
	.st5{fill:url(#SVGID_5_);}
	.st6{fill:url(#SVGID_6_);}
	.st7{fill:url(#SVGID_7_);}
	.st8{fill:url(#SVGID_8_);}
	.st9{fill:#5C4ADB;}
	.st10{fill:#4183D7;}
	.st11{fill:url(#SVGID_9_);}
	.st12{fill:url(#SVGID_10_);}
</style>
<rect x="4" y="4" class="st0" width="198" height="59"/>
<linearGradient id="SVGID_1_" gradientUnits="userSpaceOnUse" x1="256" y1="63" x2="256" y2="4">
	<stop  offset="0" style="stop-color:#4183D7"/>
	<stop  offset="0.2412" style="stop-color:#447CD7"/>
	<stop  offset="0.5847" style="stop-color:#4D6AD9"/>
	<stop  offset="0.9881" style="stop-color:#5C4BDB"/>
	<stop  offset="1" style="stop-color:#5C4ADB"/>
</linearGradient>
<rect x="202" y="4" class="st1" width="108" height="59"/>
<g>
	<linearGradient id="SVGID_2_" gradientUnits="userSpaceOnUse" x1="32.8359" y1="14.7051" x2="32.8359" y2="47.6514">
		<stop  offset="0" style="stop-color:#4183D7"/>
		<stop  offset="0.2412" style="stop-color:#447CD7"/>
		<stop  offset="0.5847" style="stop-color:#4D6AD9"/>
		<stop  offset="0.9881" style="stop-color:#5C4BDB"/>
		<stop  offset="1" style="stop-color:#5C4ADB"/>
	</linearGradient>
	<path class="st2" d="M46.3,37.5v10.2H19.7v-0.8c2,0,3.3-2.1,3.3-5.2V19.7c0-2.9-1.7-4.2-3.7-4.2v-0.8h14.8v0.8
		c-2,0-4.4,0.8-4.4,4.2v27.2h1.7c0,0,12.4,0,14-9.4H46.3z"/>
	<linearGradient id="SVGID_3_" gradientUnits="userSpaceOnUse" x1="61.3616" y1="25.6094" x2="61.3616" y2="48.0723">
		<stop  offset="0" style="stop-color:#4183D7"/>
		<stop  offset="0.2412" style="stop-color:#447CD7"/>
		<stop  offset="0.5847" style="stop-color:#4D6AD9"/>
		<stop  offset="0.9881" style="stop-color:#5C4BDB"/>
		<stop  offset="1" style="stop-color:#5C4ADB"/>
	</linearGradient>
	<path class="st3" d="M71.8,36.4H56.9c0.4,4.6,2.7,7,5.9,7.7c2.5,0.6,6.3-0.4,7.4-2.6l0.8,0.4c-0.7,2.4-3.5,6.1-9.8,6.1
		c-6.1,0-10.3-5.7-10.3-11.1c0-6.6,4.5-11.3,11-11.3C68.6,25.6,71.8,29.1,71.8,36.4z M66.1,35.6c0-5.9-1.9-9.2-4.5-9.2
		c-2.8,0-4.7,4.7-4.7,9.2H66.1z"/>
	<linearGradient id="SVGID_4_" gradientUnits="userSpaceOnUse" x1="86.7971" y1="25.6094" x2="86.7971" y2="48.0723">
		<stop  offset="0" style="stop-color:#4183D7"/>
		<stop  offset="0.2412" style="stop-color:#447CD7"/>
		<stop  offset="0.5847" style="stop-color:#4D6AD9"/>
		<stop  offset="0.9881" style="stop-color:#5C4BDB"/>
		<stop  offset="1" style="stop-color:#5C4ADB"/>
	</linearGradient>
	<path class="st4" d="M97.9,36.8c0,6.1-4,11.2-11.1,11.2c-7.1,0-11.1-5.1-11.1-11.2c0-6.2,4-11.2,11.1-11.2
		C94,25.6,97.9,30.7,97.9,36.8z M91,36.8c0-8.5-0.8-10.4-4.2-10.4c-3.4,0-4.3,2-4.3,10.4s0.9,10.4,4.3,10.4
		C90.2,47.3,91,45.3,91,36.8z"/>
	<linearGradient id="SVGID_5_" gradientUnits="userSpaceOnUse" x1="113.1694" y1="25.6094" x2="113.1694" y2="60.0527">
		<stop  offset="0" style="stop-color:#4183D7"/>
		<stop  offset="0.2412" style="stop-color:#447CD7"/>
		<stop  offset="0.5847" style="stop-color:#4D6AD9"/>
		<stop  offset="0.9881" style="stop-color:#5C4BDB"/>
		<stop  offset="1" style="stop-color:#5C4ADB"/>
	</linearGradient>
	<path class="st5" d="M125.8,37c0,7.5-5,11-11.5,11c-2.2,0-4.1-0.5-5.6-1.5v8.1c0,2.6,0.3,4.1,1.9,4.5v0.8H101v-0.8
		c1.8-0.5,1.9-2.2,1.9-4.5V30.9c0-1.6-0.5-1.9-2.3-2.6v-0.8l8.1-1.9v3.8c1.5-2.8,4.9-3.8,7.1-3.8C121.1,25.6,125.8,29.7,125.8,37z
		 M119.1,37.4c0-7.5-1.8-10.1-5.6-10.1c-2.8,0-4.5,2.2-4.8,5.1V41c0.4,4.8,3.1,6.3,5.5,6.3C117.6,47.3,119.1,44.6,119.1,37.4z"/>
	<linearGradient id="SVGID_6_" gradientUnits="userSpaceOnUse" x1="141.0398" y1="25.6094" x2="141.0398" y2="48.0723">
		<stop  offset="0" style="stop-color:#4183D7"/>
		<stop  offset="0.2412" style="stop-color:#447CD7"/>
		<stop  offset="0.5847" style="stop-color:#4D6AD9"/>
		<stop  offset="0.9881" style="stop-color:#5C4BDB"/>
		<stop  offset="1" style="stop-color:#5C4ADB"/>
	</linearGradient>
	<path class="st6" d="M152.2,36.8c0,6.1-4,11.2-11.1,11.2c-7.1,0-11.1-5.1-11.1-11.2c0-6.2,4-11.2,11.1-11.2
		C148.2,25.6,152.2,30.7,152.2,36.8z M145.3,36.8c0-8.5-0.8-10.4-4.2-10.4c-3.4,0-4.3,2-4.3,10.4s0.9,10.4,4.3,10.4
		C144.4,47.3,145.3,45.3,145.3,36.8z"/>
	<linearGradient id="SVGID_7_" gradientUnits="userSpaceOnUse" x1="160.1116" y1="12.7393" x2="160.1116" y2="47.6514">
		<stop  offset="0" style="stop-color:#4183D7"/>
		<stop  offset="0.2412" style="stop-color:#447CD7"/>
		<stop  offset="0.5847" style="stop-color:#4D6AD9"/>
		<stop  offset="0.9881" style="stop-color:#5C4BDB"/>
		<stop  offset="1" style="stop-color:#5C4ADB"/>
	</linearGradient>
	<path class="st7" d="M165.1,46.9v0.8h-9.6v-0.8c1.8-0.5,1.9-2.5,1.9-4.9V18.3c0-1.6-0.5-2.3-2.3-3v-0.8l8.2-1.7V42
		C163.3,44.6,163.5,46.4,165.1,46.9z"/>
	<linearGradient id="SVGID_8_" gradientUnits="userSpaceOnUse" x1="180.6094" y1="12.7393" x2="180.6094" y2="48.0723">
		<stop  offset="0" style="stop-color:#4183D7"/>
		<stop  offset="0.2412" style="stop-color:#447CD7"/>
		<stop  offset="0.5847" style="stop-color:#4D6AD9"/>
		<stop  offset="0.9881" style="stop-color:#5C4BDB"/>
		<stop  offset="1" style="stop-color:#5C4ADB"/>
	</linearGradient>
	<path class="st8" d="M193.3,46.2V47l-6.9,1c-1.3,0.2-1.3-0.8-1.3-0.8v-2.9c-1.5,2.8-5,3.8-7.2,3.8c-5.3,0-10-4.2-10-11.6
		c0-7.5,5-10.9,11.5-10.9c2.2,0,4.1,0.5,5.6,1.4v-8.9c0-1.6-0.5-2.1-2.4-2.8v-0.8l8.2-1.7v30.4C190.9,45.4,191.3,46,193.3,46.2z
		 M185.1,34.2c0-5.9-2.9-7.8-5.6-7.8c-3.4,0-4.9,2.6-4.9,9.7c0,7.5,1.5,10.3,5.3,10.3c3.2,0,5.1-2.3,5.1-5.6V34.2z"/>
</g>
<g>
	<path class="st0" d="M211.6,17.1H222c6.3,0,11.2,1.7,11.2,7.6c0,2.7-1.5,5.6-4,6.6v0.2c3.1,0.8,5.5,3.1,5.5,7.2c0,6.2-5.2,9-11.9,9
		h-11.3V17.1z M221.7,29.4c3.3,0,4.8-1.4,4.8-3.6c0-2.3-1.6-3.3-4.8-3.3h-3.3v6.9H221.7z M222.4,42.3c3.8,0,5.7-1.3,5.7-4.1
		c0-2.7-1.9-3.8-5.7-3.8h-3.9v7.9H222.4z"/>
	<path class="st0" d="M239.4,40.4V14.9h6.9v25.9c0,1.5,0.7,1.9,1.2,1.9c0.3,0,0.5,0,0.8-0.1l0.8,5.1c-0.8,0.3-1.9,0.6-3.5,0.6
		C241,48.2,239.4,45.1,239.4,40.4z"/>
	<path class="st0" d="M251.7,41.2c0-4.9,3.9-7.5,13.1-8.5c-0.1-2-1.2-3.4-3.7-3.4c-1.9,0-3.9,0.8-6.1,2.1l-2.4-4.5
		c2.9-1.8,6.3-3.1,9.9-3.1c5.9,0,9.2,3.4,9.2,10.5v13.3H266l-0.5-2.4h-0.2c-2,1.7-4.1,2.9-6.8,2.9C254.4,48.2,251.7,45.1,251.7,41.2
		z M264.8,40.9v-4.1c-4.9,0.7-6.5,2.1-6.5,3.8c0,1.5,1,2.2,2.7,2.2C262.5,42.9,263.5,42.1,264.8,40.9z"/>
	<path class="st0" d="M277.2,38.8V24.4h6.9V38c0,3.3,0.9,4.4,2.9,4.4c1.7,0,2.8-0.7,4.1-2.6V24.4h6.9v23.2h-5.6l-0.5-3.2h-0.2
		c-1.9,2.3-4.1,3.8-7.3,3.8C279.4,48.2,277.2,44.6,277.2,38.8z"/>
</g>
<rect class="st9" width="310" height="4"/>
<rect y="63" class="st10" width="310" height="4"/>
<linearGradient id="SVGID_9_" gradientUnits="userSpaceOnUse" x1="2" y1="67" x2="2" y2="-9.094947e-13">
	<stop  offset="0" style="stop-color:#4183D7"/>
	<stop  offset="0.2412" style="stop-color:#447CD7"/>
	<stop  offset="0.5847" style="stop-color:#4D6AD9"/>
	<stop  offset="0.9881" style="stop-color:#5C4BDB"/>
	<stop  offset="1" style="stop-color:#5C4ADB"/>
</linearGradient>
<polygon class="st11" points="0,67 0,0 4,0 4,67 "/>
<linearGradient id="SVGID_10_" gradientUnits="userSpaceOnUse" x1="312" y1="67" x2="312" y2="-9.094947e-13">
	<stop  offset="0" style="stop-color:#4183D7"/>
	<stop  offset="0.2412" style="stop-color:#447CD7"/>
	<stop  offset="0.5847" style="stop-color:#4D6AD9"/>
	<stop  offset="0.9881" style="stop-color:#5C4BDB"/>
	<stop  offset="1" style="stop-color:#5C4ADB"/>
</linearGradient>
<polygon class="st12" points="310,67 310,0 314,0 314,67 "/>
</svg>
