<?xml version="1.0" encoding="utf-8"?>
<!-- Generator: Adobe Illustrator 22.0.1, SVG Export Plug-In . SVG Version: 6.00 Build 0)  -->
<svg version="1.1" id="Ebene_1" xmlns="http://www.w3.org/2000/svg" xmlns:xlink="http://www.w3.org/1999/xlink" x="0px" y="0px"
	 viewBox="0 0 314 67" style="enable-background:new 0 0 314 67;" xml:space="preserve">
<style type="text/css">
	.st0{fill:url(#SVGID_1_);}
	.st1{fill:url(#SVGID_2_);}
	.st2{fill:url(#SVGID_3_);}
	.st3{fill:url(#SVGID_4_);}
	.st4{fill:url(#SVGID_5_);}
	.st5{fill:url(#SVGID_6_);}
	.st6{fill:url(#SVGID_7_);}
	.st7{fill:url(#SVGID_8_);}
	.st8{fill:#FFFFFF;}
</style>
<g>
	<linearGradient id="SVGID_1_" gradientUnits="userSpaceOnUse" x1="157" y1="67" x2="157" y2="-9.094947e-13">
		<stop  offset="0" style="stop-color:#4183D7"/>
		<stop  offset="0.2412" style="stop-color:#447CD7"/>
		<stop  offset="0.5847" style="stop-color:#4D6AD9"/>
		<stop  offset="0.9881" style="stop-color:#5C4BDB"/>
		<stop  offset="1" style="stop-color:#5C4ADB"/>
	</linearGradient>
	<path class="st0" d="M310,0H4H0v4v59v4h4h306h4V0H310z M4,63V4h194v59H4z"/>
	<g>
		<linearGradient id="SVGID_2_" gradientUnits="userSpaceOnUse" x1="25.4185" y1="14.7051" x2="25.4185" y2="47.6514">
			<stop  offset="0" style="stop-color:#4183D7"/>
			<stop  offset="0.2412" style="stop-color:#447CD7"/>
			<stop  offset="0.5847" style="stop-color:#4D6AD9"/>
			<stop  offset="0.9881" style="stop-color:#5C4BDB"/>
			<stop  offset="1" style="stop-color:#5C4ADB"/>
		</linearGradient>
		<path class="st1" d="M39.2,37.5v10.2H12.1v-0.8c2.1,0,3.4-2.1,3.4-5.2V19.7c0-2.9-1.7-4.2-3.8-4.2v-0.8h15.1v0.8
			c-2.1,0-4.4,0.8-4.4,4.2v27.2h1.7c0,0,12.7,0,14.3-9.4H39.2z"/>
		<linearGradient id="SVGID_3_" gradientUnits="userSpaceOnUse" x1="54.5204" y1="25.6094" x2="54.5204" y2="48.0723">
			<stop  offset="0" style="stop-color:#4183D7"/>
			<stop  offset="0.2412" style="stop-color:#447CD7"/>
			<stop  offset="0.5847" style="stop-color:#4D6AD9"/>
			<stop  offset="0.9881" style="stop-color:#5C4BDB"/>
			<stop  offset="1" style="stop-color:#5C4ADB"/>
		</linearGradient>
		<path class="st2" d="M65.2,36.4H50c0.4,4.6,2.8,7,6,7.7c2.6,0.6,6.4-0.4,7.6-2.6l0.8,0.4c-0.8,2.4-3.6,6.1-10,6.1
			c-6.3,0-10.6-5.7-10.6-11.1c0-6.6,4.6-11.3,11.2-11.3C61.9,25.6,65.2,29.1,65.2,36.4z M59.4,35.6c0-5.9-2-9.2-4.6-9.2
			c-2.8,0-4.8,4.7-4.8,9.2H59.4z"/>
		<linearGradient id="SVGID_4_" gradientUnits="userSpaceOnUse" x1="80.4698" y1="25.6094" x2="80.4698" y2="48.0723">
			<stop  offset="0" style="stop-color:#4183D7"/>
			<stop  offset="0.2412" style="stop-color:#447CD7"/>
			<stop  offset="0.5847" style="stop-color:#4D6AD9"/>
			<stop  offset="0.9881" style="stop-color:#5C4BDB"/>
			<stop  offset="1" style="stop-color:#5C4ADB"/>
		</linearGradient>
		<path class="st3" d="M91.8,36.8c0,6.1-4.1,11.2-11.4,11.2c-7.3,0-11.4-5.1-11.4-11.2c0-6.2,4.1-11.2,11.4-11.2
			C87.8,25.6,91.8,30.7,91.8,36.8z M84.8,36.8c0-8.5-0.9-10.4-4.3-10.4c-3.4,0-4.3,2-4.3,10.4s0.9,10.4,4.3,10.4
			C83.9,47.3,84.8,45.3,84.8,36.8z"/>
		<linearGradient id="SVGID_5_" gradientUnits="userSpaceOnUse" x1="107.3749" y1="25.6094" x2="107.3749" y2="60.0527">
			<stop  offset="0" style="stop-color:#4183D7"/>
			<stop  offset="0.2412" style="stop-color:#447CD7"/>
			<stop  offset="0.5847" style="stop-color:#4D6AD9"/>
			<stop  offset="0.9881" style="stop-color:#5C4BDB"/>
			<stop  offset="1" style="stop-color:#5C4ADB"/>
		</linearGradient>
		<path class="st4" d="M120.2,37c0,7.5-5.1,11-11.7,11c-2.2,0-4.2-0.5-5.7-1.5v8.1c0,2.6,0.3,4.1,2,4.5v0.8H95v-0.8
			c1.8-0.5,1.9-2.2,1.9-4.5V30.9c0-1.6-0.5-1.9-2.4-2.6v-0.8l8.3-1.9v3.8c1.5-2.8,5-3.8,7.3-3.8C115.5,25.6,120.2,29.7,120.2,37z
			 M113.4,37.4c0-7.5-1.8-10.1-5.7-10.1c-2.9,0-4.6,2.2-4.9,5.1V41c0.4,4.8,3.2,6.3,5.6,6.3C111.9,47.3,113.4,44.6,113.4,37.4z"/>
		<linearGradient id="SVGID_6_" gradientUnits="userSpaceOnUse" x1="135.8083" y1="25.6094" x2="135.8083" y2="48.0723">
			<stop  offset="0" style="stop-color:#4183D7"/>
			<stop  offset="0.2412" style="stop-color:#447CD7"/>
			<stop  offset="0.5847" style="stop-color:#4D6AD9"/>
			<stop  offset="0.9881" style="stop-color:#5C4BDB"/>
			<stop  offset="1" style="stop-color:#5C4ADB"/>
		</linearGradient>
		<path class="st5" d="M147.2,36.8c0,6.1-4.1,11.2-11.4,11.2c-7.3,0-11.4-5.1-11.4-11.2c0-6.2,4.1-11.2,11.4-11.2
			C143.1,25.6,147.2,30.7,147.2,36.8z M140.1,36.8c0-8.5-0.9-10.4-4.3-10.4c-3.4,0-4.3,2-4.3,10.4s0.9,10.4,4.3,10.4
			C139.2,47.3,140.1,45.3,140.1,36.8z"/>
		<linearGradient id="SVGID_7_" gradientUnits="userSpaceOnUse" x1="155.2653" y1="12.7393" x2="155.2653" y2="47.6514">
			<stop  offset="0" style="stop-color:#4183D7"/>
			<stop  offset="0.2412" style="stop-color:#447CD7"/>
			<stop  offset="0.5847" style="stop-color:#4D6AD9"/>
			<stop  offset="0.9881" style="stop-color:#5C4BDB"/>
			<stop  offset="1" style="stop-color:#5C4ADB"/>
		</linearGradient>
		<path class="st6" d="M160.4,46.9v0.8h-9.8v-0.8c1.8-0.5,1.9-2.5,1.9-4.9V18.3c0-1.6-0.5-2.3-2.4-3v-0.8l8.4-1.7V42
			C158.5,44.6,158.7,46.4,160.4,46.9z"/>
		<linearGradient id="SVGID_8_" gradientUnits="userSpaceOnUse" x1="176.1772" y1="12.7393" x2="176.1772" y2="48.0723">
			<stop  offset="0" style="stop-color:#4183D7"/>
			<stop  offset="0.2412" style="stop-color:#447CD7"/>
			<stop  offset="0.5847" style="stop-color:#4D6AD9"/>
			<stop  offset="0.9881" style="stop-color:#5C4BDB"/>
			<stop  offset="1" style="stop-color:#5C4ADB"/>
		</linearGradient>
		<path class="st7" d="M189.1,46.2V47l-7,1c-1.3,0.2-1.3-0.8-1.3-0.8v-2.9c-1.5,2.8-5.1,3.8-7.3,3.8c-5.4,0-10.2-4.2-10.2-11.6
			c0-7.5,5.1-10.9,11.7-10.9c2.2,0,4.2,0.5,5.7,1.4v-8.9c0-1.6-0.5-2.1-2.4-2.8v-0.8l8.4-1.7v30.4C186.7,45.4,187.1,46,189.1,46.2z
			 M180.7,34.2c0-5.9-3-7.8-5.7-7.8c-3.5,0-5,2.6-5,9.7c0,7.5,1.6,10.3,5.4,10.3c3.2,0,5.3-2.3,5.3-5.6V34.2z"/>
	</g>
</g>
<g>
	<path class="st8" d="M211.6,17.1H222c6.3,0,11.2,1.7,11.2,7.6c0,2.7-1.5,5.6-4,6.6v0.2c3.1,0.8,5.5,3.1,5.5,7.2c0,6.2-5.2,9-11.9,9
		h-11.3V17.1z M221.7,29.4c3.3,0,4.8-1.4,4.8-3.6c0-2.3-1.6-3.3-4.8-3.3h-3.3v6.9H221.7z M222.4,42.3c3.8,0,5.7-1.3,5.7-4.1
		c0-2.7-1.9-3.8-5.7-3.8h-3.9v7.9H222.4z"/>
	<path class="st8" d="M239.4,40.4V14.9h6.9v25.9c0,1.5,0.7,1.9,1.2,1.9c0.3,0,0.5,0,0.8-0.1l0.8,5.1c-0.8,0.3-1.9,0.6-3.5,0.6
		C241,48.2,239.4,45.1,239.4,40.4z"/>
	<path class="st8" d="M251.7,41.2c0-4.9,3.9-7.5,13.1-8.5c-0.1-2-1.2-3.4-3.7-3.4c-1.9,0-3.9,0.8-6.1,2.1l-2.4-4.5
		c2.9-1.8,6.3-3.1,9.9-3.1c5.9,0,9.2,3.4,9.2,10.5v13.3H266l-0.5-2.4h-0.2c-2,1.7-4.1,2.9-6.8,2.9C254.4,48.2,251.7,45.1,251.7,41.2
		z M264.8,40.9v-4.1c-4.9,0.7-6.5,2.1-6.5,3.8c0,1.5,1,2.2,2.7,2.2C262.5,42.9,263.5,42.1,264.8,40.9z"/>
	<path class="st8" d="M277.2,38.8V24.4h6.9V38c0,3.3,0.9,4.4,2.9,4.4c1.7,0,2.8-0.7,4.1-2.6V24.4h6.9v23.2h-5.6l-0.5-3.2h-0.2
		c-1.9,2.3-4.1,3.8-7.3,3.8C279.4,48.2,277.2,44.6,277.2,38.8z"/>
</g>
</svg>
