<?xml version="1.0" encoding="utf-8"?>
<!-- Generator: Adobe Illustrator 22.0.1, SVG Export Plug-In . SVG Version: 6.00 Build 0)  -->
<svg version="1.1" id="Ebene_1" xmlns="http://www.w3.org/2000/svg" xmlns:xlink="http://www.w3.org/1999/xlink" x="0px" y="0px"
	 viewBox="0 0 1508.1 200" style="enable-background:new 0 0 1508.1 200;" xml:space="preserve">
<style type="text/css">
	.st0{opacity:0.4;fill:#DFE4E2;}
</style>
<path class="st0" d="M1283,191.7v7.8H224.9l14.2-7.8l18.9-5.6l15.5-3.9l3.4-3.9l-2.7-3H316v-6.9h15.5v6.1l6.1,1.7v15.6l3.1,1.1
	l3-2.9v-19.5h12.1v-10l3.4-7.4l3.7,6.6l5.1-14.8l5.2,14.8l3.5-6.5l3.6,7.2v27.4h24.1v-23.4h-6.1V147h20.9V65l9.4-3.9l33,3.9v78.1
	l6.1-2.2l9.4,2.2H492v-6.1h27.6l8.8,3.9l0.4-90.7l12.1-3.9V13.2l39.4-5.9l3,3.9l14.8-4.1l27.6-7.6l0.1,0h0c0,0,0,0,0,0c0,0,0,0,0,0
	c7.8,2,13.3,6.9,13.3,12.7c0,7.6-9.5,13.7-21.2,13.7c-0.4,0-0.8,0-1.1,0c0,0,0,0-0.1,0l0,0c0,0,0,0,0.1,0l-0.1,0l0,0v132.8h20.9
	v-13.9h24.3v13.9h3.4V108h2.7v-3.9h3.4v-10l14.8-11.7l15.1,11.9v9.8h3.3v3.9h2.7v35.1l30.7,0l0.1,14.6h3V144l5.7-0.9v-41.2h24.3
	l24.3,6.1v50.8h9.4V47.2h20.9v-9.5l12.1-2.2l9.4,6.1h6.1l27,13.5v82h9.4v-15.6h2.7v15.6l6.1,2.2v52.5h3.4L902,146h15.2l0.5-12.1
	l8.7-1.6h12.3V19.1l2.8-2v-5.9l24.3-3.9l27.3,9.8v7.8h3v5.9l15.2-3.9v-7.8l3-2v-5.9l24.3-3.9l27.3,9.8v7.8h3v130.8l9.1,3.9
	l-0.1,14.7h27v-13.9l12.1-1.7v-10h-2.7v-3.9h6.1v-1.7h24.3l21.3,6.8v29.3h3v-7.8l3.1-3.9h27.3l21.2,3.9v3.9h6.1l-0.4-20.4h3.4
	l0.1,10.7h6.1v-2h9.1v7.8h15.2l-0.1,16.5h14.8v3.9H1283z"/>
</svg>
